<?xml version="1.0" standalone="no"?>
<!DOCTYPE svg PUBLIC "-//W3C//DTD SVG 1.1//EN" "http://www.w3.org/Graphics/SVG/1.1/DTD/svg11.dtd" >
<!--
2013-9-30: Created.
-->
<svg>
<metadata>
Created by iconfont
</metadata>
<defs>

<font id="iconfont" horiz-adv-x="1024" >
  <font-face
    font-family="iconfont"
    font-weight="500"
    font-stretch="normal"
    units-per-em="1024"
    ascent="896"
    descent="-128"
  />
    <missing-glyph />
    
    <glyph glyph-name="x" unicode="x" horiz-adv-x="1001"
d="M281 543q-27 -1 -53 -1h-83q-18 0 -36.5 -6t-32.5 -18.5t-23 -32t-9 -45.5v-76h912v41q0 16 -0.5 30t-0.5 18q0 13 -5 29t-17 29.5t-31.5 22.5t-49.5 9h-133v-97h-438v97zM955 310v-52q0 -23 0.5 -52t0.5 -58t-10.5 -47.5t-26 -30t-33 -16t-31.5 -4.5q-14 -1 -29.5 -0.5
t-29.5 0.5h-32l-45 128h-439l-44 -128h-29h-34q-20 0 -45 1q-25 0 -41 9.5t-25.5 23t-13.5 29.5t-4 30v167h911zM163 247q-12 0 -21 -8.5t-9 -21.5t9 -21.5t21 -8.5q13 0 22 8.5t9 21.5t-9 21.5t-22 8.5zM316 123q-8 -26 -14 -48q-5 -19 -10.5 -37t-7.5 -25t-3 -15t1 -14.5
t9.5 -10.5t21.5 -4h37h67h81h80h64h36q23 0 34 12t2 38q-5 13 -9.5 30.5t-9.5 34.5q-5 19 -11 39h-368zM336 498v228q0 11 2.5 23t10 21.5t20.5 15.5t34 6h188q31 0 51.5 -14.5t20.5 -52.5v-227h-327z" />
    

    
    <glyph glyph-name="gou" unicode="&#58882;" d="M834.9531 519.0805 419.218 71.383 195.3606 359.1889 277.3084 429.1414 419.218 281.2407 770.9939 583.0371Z"  horiz-adv-x="1000" />

    
    <glyph glyph-name="youjian" unicode="&#58948;" d="M944.934912 620.765952c-5.781504-0.608256-11.573248-1.094656-17.34144-1.094656-276.85376-0.169984-553.695232-0.169984-830.53568 0-5.768192 0-11.548672 0.487424-17.34144 1.094656-9.017344-3.456-15.430656-12.181504-15.430656-22.427648l0-2.495488c12.425216-8.421376 26.079232-15.455232 37.067776-25.434112C214.029312 467.894016 326.340608 364.990208 438.639616 262.061824c54.214656-49.69984 92.913664-49.750016 147.309568 0.07168 111.545344 102.102016 223.015936 204.288 334.913536 306.01216 11.803648 10.732544 26.273792 18.521088 39.489536 27.696128l0 2.495488C960.35328 608.584448 953.951232 617.309952 944.934912 620.765952M695.681024 259.309312c-15.783936 13.874176-27.406336 13.75232-41.814016-1.678336-14.286848-15.286272-30.77632-28.550144-46.524416-42.447872-61.479936-54.127616-129.27488-53.885952-190.803968 0.705536-20.566016 18.241536-40.937472 36.67968-63.949824 57.341952-63.280128-52.328448-125.04064-103.780352-187.262976-154.69568-33.283072-27.236352-67.33312-53.545984-101.029888-80.258048l0-35.69152c0-13.290496 10.758144-24.045568 24.046592-24.045568l847.962112 0c13.289472 0 24.05888 10.756096 24.05888 24.045568l0 42.323968c-55.163904 43.809792-110.522368 87.35232-165.394432 131.52768C761.383936 203.465472 728.039424 230.857472 695.681024 259.309312M64.285696 536.092416l0-438.074368C147.049472 167.01824 229.788672 236.017408 316.082176 307.988224 229.351424 386.554624 146.818048 461.321984 64.285696 536.092416M960.365568 104.66176 960.365568 536.092416c-82.35008-74.624-164.687872-149.245952-249.78944-226.37568C796.68736 239.023872 878.52544 171.838208 960.365568 104.66176"  horiz-adv-x="1024" />

    
    <glyph glyph-name="liebiao" unicode="&#58915;" d="M961.097728 547.983104c0-12.824576-10.396672-23.221248-23.221248-23.221248L87.033856 524.761856c-12.824576 0-23.221248 10.396672-23.221248 23.221248l0 101.696512c0 12.824576 10.396672 23.221248 23.221248 23.221248l850.842624 0c12.823552 0 23.221248-10.396672 23.221248-23.221248L961.097728 547.983104zM961.097728 248.325888c0-12.823552-10.396672-23.221248-23.221248-23.221248L87.033856 225.10464c-12.824576 0-23.221248 10.396672-23.221248 23.221248l0 101.696512c0 12.824576 10.396672 23.221248 23.221248 23.221248l850.842624 0c12.823552 0 23.221248-10.396672 23.221248-23.221248L961.097728 248.325888zM961.097728-51.66208c0-12.823552-10.396672-23.221248-23.221248-23.221248L87.033856-74.883328c-12.824576 0-23.221248 10.396672-23.221248 23.221248l0 101.696512c0 12.8256 10.396672 23.222272 23.221248 23.222272l850.842624 0c12.823552 0 23.221248-10.395648 23.221248-23.222272L961.097728-51.66208z"  horiz-adv-x="1024" />

    
    <glyph glyph-name="jiantouxiangyou" unicode="&#58946;" d="M257.963008 703.505152 308.617216 754.168576 713.915392 348.871424 713.915392 348.881664 764.570624 298.216192 713.915392 247.559936 713.915392 247.559936 308.617216-157.728 257.963008-107.071744 663.259136 298.216192Z"  horiz-adv-x="1024" />

    
    <glyph glyph-name="jiantouxiangzuo" unicode="&#58947;" d="M764.571648 703.505152 713.91744 754.168576 308.619264 348.871424 308.619264 348.881664 257.964032 298.216192 308.619264 247.559936 308.619264 247.559936 713.91744-157.728 764.571648-107.071744 359.27552 298.216192Z"  horiz-adv-x="1024" />

    
    <glyph glyph-name="gou1" unicode="&#58905;" d="M1024 649.6 376.064-71.008l-30.624 30.464 0 0L0 296.32l32.32 31.712L375.68-6.752l616 688.032L1024 649.6z"  horiz-adv-x="1024" />

    
    <glyph glyph-name="sousuo" unicode="&#58903;" d="M125.872291 346.329165c0 189.738365 153.796782 343.535147 343.535147 343.535147 189.738365 0 343.535147-153.797805 343.535147-343.535147 0-189.737342-153.796782-343.535147-343.535147-343.535147C279.669072 2.794018 125.872291 156.591823 125.872291 346.329165zM722.799542 32.593717l182.254927-182.204785 52.816926 52.832276L776.346085 84.798706c60.066027 70.406536 96.341209 161.732521 96.341209 261.530458 0 222.731804-180.549076 403.28088-403.28088 403.28088S66.126558 569.060969 66.126558 346.329165c0-222.730781 180.549076-403.289066 403.28088-403.289066C565.398676-56.958878 653.558551-23.409784 722.799542 32.593717z"  horiz-adv-x="1024" />

    
    <glyph glyph-name="huiyuan2" unicode="&#59485;" d="M511.674589 513.654055m-188.355879 0a184.066 184.066 0 1 0 376.711757 0 184.066 184.066 0 1 0-376.711757 0ZM844.606237 357.20384c0 0-314.435389-78.609359-332.931648-349.116259 0 0-2.311649 270.5069-339.867618 339.867618l-43.928488-449.27133 767.593236 0L844.606237 357.20384z"  horiz-adv-x="1024" />

    
    <glyph glyph-name="weixin" unicode="&#58939;" d="M498.816 466.944c26.336 0 43.936 17.632 43.936 43.904 0 26.56-17.568 43.744-43.936 43.744s-52.832-17.184-52.832-43.744C446.016 484.576 472.48 466.944 498.816 466.944zM253.088 554.592c-26.336 0-52.96-17.184-52.96-43.744 0-26.272 26.624-43.904 52.96-43.904 26.24 0 43.808 17.632 43.808 43.904C296.864 537.408 279.328 554.592 253.088 554.592zM1024 185.888c0 138.88-128.832 257.216-286.976 269.536 0.224 1.728 0.32 3.52-0.064 5.312-31.712 147.84-190.688 259.296-369.824 259.296C164.704 720.032 0 578.88 0 405.376c0-93.088 47.52-176.96 137.568-243.104l-31.392-94.368c-2.016-6.144-0.192-12.896 4.704-17.152 2.976-2.56 6.72-3.904 10.496-3.904 2.432 0 4.896 0.576 7.168 1.696L246.4 107.52l14.528-2.944c36.288-7.456 67.616-13.92 106.208-13.92 11.36 0 22.88 0.512 34.176 1.472 4.576 0.384 8.448 2.688 11.072 6.016 42.496-106.336 159.616-183.104 297.44-183.104 35.296 0 71.04 8.512 103.104 16.544l90.848-49.664c2.4-1.312 5.056-1.984 7.68-1.984 3.584 0 7.168 1.216 10.048 3.552 5.056 4.096 7.136 10.848 5.248 17.024l-23.2 77.152C981.344 39.136 1024 112.672 1024 185.888zM398.592 124.032c-10.4-0.896-20.96-1.344-31.424-1.344-35.328 0-65.216 6.112-99.776 13.248L247.296 140c-3.456 0.736-7.104 0.256-10.272-1.376l-88.288-44.192 22.944 68.928c2.24 6.752-0.224 14.112-6.016 18.176C76.96 243.36 32 318.688 32 405.376c0 155.84 150.336 282.656 335.136 282.656 163.36 0 308-99.392 337.856-231.584-171.296-2.24-309.888-122.656-309.888-270.56 0-21.504 3.264-42.336 8.768-62.432C402.208 123.872 400.448 124.192 398.592 124.032zM875.456-3.552c-5.344-4.032-7.616-10.976-5.696-17.376l15.136-50.336-62.112 33.984c-2.368 1.312-5.024 1.984-7.68 1.984-1.312 0-2.624-0.16-3.904-0.512-33.312-8.416-67.776-17.088-101.344-17.088-155.904 0-282.72 107.136-282.72 238.816 0 131.68 126.816 238.784 282.72 238.784 152.928 0 282.144-109.344 282.144-238.784C992 120.256 950.624 52.96 875.456-3.552zM612.992 300.032c-17.568 0-35.136-17.696-35.136-35.232 0-17.664 17.568-35.104 35.136-35.104 26.4 0 43.84 17.44 43.84 35.104C656.832 282.368 639.392 300.032 612.992 300.032zM806.016 300.032c-17.312 0-34.88-17.696-34.88-35.232 0-17.664 17.568-35.104 34.88-35.104 26.304 0 44.064 17.44 44.064 35.104C850.08 282.368 832.352 300.032 806.016 300.032z"  horiz-adv-x="1024" />

    
    <glyph glyph-name="jiantouup" unicode="&#59010;" d="M953.974134 90.163901 534.063505 539.282758c-5.92392 6.337335-14.148231 9.337669-22.246677 8.904811-7.303336-0.215918-14.515598-3.211135-19.857257-8.927323L72.02643 90.1946c-10.544147-11.270694-9.81453-28.832675 1.61887-39.228443 11.43647-10.395768 29.253254-9.685593 39.795355 1.590218l399.583674 427.308109L912.557862 52.540002c10.544147-11.290137 28.358885-11.994172 39.795355-1.601474C963.788663 61.319969 964.512141 78.890136 953.974134 90.163901z"  horiz-adv-x="1024" />

    
    <glyph glyph-name="denglu" unicode="&#58927;" d="M875.052155-11.429939c-19.820418 51.561329-48.232514 97.906867-84.444251 137.749294-36.403095 40.054251-78.866209 71.533196-126.20947 93.566002-8.992815 4.185322-18.088984 7.988951-27.278273 11.418051 20.349467 11.520381 39.263236 25.873274 56.248072 42.85811 49.285496 49.285496 76.428693 114.813932 76.428693 184.514387 0 69.700455-27.142174 135.228891-76.428693 184.514387s-114.814955 76.428693-184.515411 76.428693-135.228891-27.143197-184.515411-76.428693c-49.285496-49.28652-76.428693-114.813932-76.428693-184.514387 0-69.700455 27.143197-135.228891 76.428693-184.514387 16.984836-16.984836 35.899628-31.337729 56.247049-42.85811-9.18929-3.430122-18.285458-7.232728-27.278273-11.418051-47.343261-22.031782-89.806375-53.511751-126.20947-93.566002-36.21276-39.84345-66.13628-85.633333-84.445274-137.749294-15.278985-43.48949-13.682627-86.440721-14.458293-106.500593l61.380976 0c-2.025123 143.258775 134.198421 310.976614 319.278697 310.976614 185.079252 0 324.882322-173.85563 325.419558-310.976614l61.379952 0C894.560464-79.158483 895.512139-64.651071 875.052155-11.429939zM309.306066 458.675906c0 110.028952 89.515756 199.544709 199.545732 199.544709 110.028952 0 199.545732-89.515756 199.545732-199.544709s-89.51678-199.544709-199.545732-199.544709C398.821823 259.131197 309.306066 348.646953 309.306066 458.675906z"  horiz-adv-x="1024" />

    
    <glyph glyph-name="zhifubao" unicode="&#59051;" d="M1023.648242 110.722129 1023.648242 614.503779c0 108.597339-88.13141 196.728749-196.792705 196.728749L197.080507 811.232528C88.483168 811.232528 0.351758 723.101118 0.351758 614.503779l0-629.77503c0-108.597339 88.067454-196.728749 196.728749-196.728749l629.77503 0c96.765474 0 177.286116 69.967897 193.722816 162.000625-52.188121 22.576479-278.336644 120.237337-396.143651 176.454687-89.666354-108.597339-183.553807-173.768534-325.088502-173.768534s-235.997752 87.172069-224.677534 193.850728C82.151521 216.569359 130.1825 331.050653 338.80707 311.416151 448.747486 301.119231 499.080882 280.589345 588.747236 250.977703c23.216039 42.53076 42.466804 89.346574 57.112735 139.168322L248.245331 390.146025 248.245331 429.542939l196.728749 0L444.97408 500.278309 205.011055 500.278309 205.011055 543.640497l239.963025 0L444.97408 645.714321c0 0 2.174505 15.989008 19.826369 15.989008L563.164824 661.703329l0-118.062832 255.824121 0 0-43.362188-255.824121 0L563.164824 429.542939l208.688527 0c-19.186809-78.090313-48.286803-149.848979-84.74174-212.525888C747.741927 195.080132 1023.648242 110.722129 1023.648242 110.722129L1023.648242 110.722129 1023.648242 110.722129zM283.676972 20.224346c-149.529199 0-173.19293 94.399101-165.262382 133.859971 7.866592 39.269003 51.164824 90.497783 134.307663 90.497783 95.550309 0 181.123478-24.431204 283.836862-74.444819C464.416714 76.185872 375.773656 20.224346 283.676972 20.224346L283.676972 20.224346z"  horiz-adv-x="1024" />

    
    <glyph glyph-name="zan1" unicode="&#58997;" d="M875.373984 453.325038c-34.712593 9.108448-116.333542 9.003048-235.703233 12.148691 5.638417 26.057469 6.939039 49.5403 6.939039 91.249237 0 99.629091-72.565712 187.384761-136.795573 187.384761-45.340651 0-82.737376-37.072337-83.309404-82.655512-0.623193-55.918567-17.895579-152.510486-111.071701-201.482851-6.833639-3.608178-26.38595-13.236466-29.230742-14.508435l1.463328-1.248434c-14.589276 12.582573-34.792411 22.205745-55.534827 22.205745l-83.309404 0c-45.936215 0-83.303264-37.367049-83.303264-83.305311L65.518203-61.180016c0-45.936215 37.367049-83.308381 83.303264-83.308381l83.309404 0c33.053814 0 60.683081 19.960611 74.081229 47.943942 0.328481-0.105401 0.924045-0.272199 1.300622-0.324388 1.845021-0.48607 3.989871-1.028423 6.643304-1.733481 0.49221-0.109494 0.762363-0.166799 1.277086-0.329505 16.001439-3.956102 46.780443-11.334139 112.593358-26.461675 14.126742-3.202948 88.63162-19.09387 165.863608-19.09387l151.809521 0c46.260603 0 79.615269 17.787108 99.467409 53.529147 0.271176 0.543376 6.66684 13.021571 11.876492 29.883611 3.90289 12.687974 5.371334 30.642904 0.647753 48.867988 29.831422 20.499893 39.432081 51.471278 45.670156 71.631434 10.466376 33.082466 7.320733 57.919131 0.052189 75.711356 16.757662 15.83771 31.075763 39.969317 37.09485 76.798107 3.742231 22.835078-0.271176 46.317908-10.790764 65.883523 15.72924 17.654079 22.883173 39.859823 23.697725 60.417021l0.329505 5.801123c0.214894 3.665483 0.38067 5.915733 0.38067 13.911848C954.126606 393.042069 929.8282 437.758504 875.373984 453.325038L875.373984 453.325038zM259.898285-61.180016c0-15.35164-12.420891-27.767414-27.768437-27.767414l-83.309404 0c-15.347546 0-27.767414 12.414751-27.767414 27.767414L121.05303 383.113953c0 15.347546 12.419867 27.768437 27.767414 27.768437l83.309404 0c15.347546 0 27.768437-12.416797 27.768437-27.768437L259.898285-61.180016 259.898285-61.180016zM897.938909 340.485063c-0.544399-13.721513-6.29231-40.675398-54.884005-40.675398l-55.54506 0c-7.698333 0-13.879102-6.210445-13.879102-13.884218 0-7.673773 6.181793-13.884218 13.879102-13.884218l53.80544 0c41.656749 0 47.133483-34.56012 44.421722-51.208289-3.417843-20.717857-13.126972-59.877739-60.040445-59.877739l-65.951061 0c-7.702426 0-13.884218-6.185886-13.884218-13.884218 0-7.649214 6.181793-13.884218 13.884218-13.884218l54.668087 0c46.862307 0 42.739407-35.742039 36.014238-57.05546-8.841366-28.025287-14.264888-54.006008-73.329099-54.006008l-45.283346 0c-7.701402 0-13.884218-6.182816-13.884218-13.884218 0-7.645121 6.182816-13.884218 13.884218-13.884218l43.549865 0c30.369681 0 31.779797-28.745694 28.634154-39.049365-3.469008-11.281951-7.591909-19.632129-7.753591-20.012799-8.403391-15.133675-21.910009-24.241101-50.54621-24.241101L593.895195-88.946406c-76.254731 0-151.904689 17.301038-153.854087 17.73492-115.362424 26.576285-121.4337 28.636201-128.673591 30.694069 0 0-23.487947 3.960195-23.487947 24.460088l-0.214894 383.523907c0 13.016455 8.29799 24.789593 22.044062 28.936029 1.710968 0.682545 4.041036 1.382487 5.723352 2.087545C442.291358 451.018505 480.906841 566.213108 482.046804 660.803439c0.162706 13.283538 10.414187 27.768437 27.768437 27.768437 29.354562 0 81.258699-58.930157 81.258699-131.84891 0-65.839521-2.653433-77.230965-25.703405-145.841599 277.685393 0 275.731902-3.983731 300.248272-10.409071 30.370705-8.67866 32.972972-33.844829 32.972972-42.524512C898.591779 348.431036 898.314463 349.811476 897.938909 340.485063L897.938909 340.485063zM190.472076 22.125295c-22.992667 0-41.652655-18.654872-41.652655-41.652655s18.659989-41.652655 41.652655-41.652655c23.001877 0 41.656749 18.654872 41.656749 41.652655S213.469859 22.125295 190.472076 22.125295L190.472076 22.125295zM190.472076-33.411579c-7.644097 0-13.879102 6.235005-13.879102 13.884218 0 7.645121 6.235005 13.884218 13.879102 13.884218 7.650237 0 13.884218-6.239098 13.884218-13.884218C204.356294-27.176574 198.123336-33.411579 190.472076-33.411579L190.472076-33.411579zM190.472076-33.411579"  horiz-adv-x="1024" />

    
    <glyph glyph-name="liulan" unicode="&#58976;" d="M512 620c206.752 0 419.872-254.016 446.496-320C931.936 233.984 718.752-20 512-20 304.544-20 91.584 234.176 65.504 300 91.744 365.792 304.704 620 512 620M512 684C256.192 684 0 364.192 0 300c0-64.064 255.104-384 512-384 256.32 0 512 320.384 512 384C1024 364 767.136 684 512 684L512 684zM512 460c-88.416 0-160-71.648-160-160 0-88.384 71.584-160 160-160 88.448 0 160 71.616 160 160C672 388.352 600.448 460 512 460zM512 204c-52.992 0-96 43.008-96 96 0 53.024 43.008 96 96 96s96-42.976 96-96C608 247.008 565.056 204 512 204z"  horiz-adv-x="1024" />

    
    <glyph glyph-name="tianjiahaoyou" unicode="&#58938;" d="M1024-84l-128 0 0-128-51.2 0 0 128-128 0 0 51.2 128 0 0 128 51.2 0 0-128 128 0L1024-84zM793.6 146.4c-79.104 63.9488-171.9552 102.4-281.6 102.4-254.4896 0-460.8-206.3104-460.8-460.8L0-212c0 236.8256 160.9984 435.5072 379.3664 494.0288C290.7392 329.4656 230.4 422.8544 230.4 530.4 230.4 685.92 356.48 812 512 812s281.6-126.08 281.6-281.6c0-107.5456-60.3392-200.9344-148.9664-248.3712 89.3952-23.9616 162.7136-71.68 225.7664-135.6288L793.6 146.4zM742.4 530.4c0 127.2576-103.1424 230.4-230.4 230.4s-230.4-103.1424-230.4-230.4 103.1424-230.4 230.4-230.4S742.4 403.1424 742.4 530.4z"  horiz-adv-x="1024" />

    
    <glyph glyph-name="bianji" unicode="&#58952;" d="M783.70558 524.926796 657.810223 650.816994l62.973774 62.946634c20.866068 20.837584 54.651907 20.837584 75.516952 0l50.351798-50.350758c20.866068-20.865213 20.866068-54.702879 0-75.56707L783.70558 524.926796zM417.966076 159.202277 292.069696 285.092475l342.253664 339.564719 125.894333-125.891222L417.966076 159.202277zM190.931177 55.958868l76.597607 204.593701 124.841308-124.864846L190.931177 55.958868zM756.299293 12.933959c17.622055 0 31.891621-14.270005 31.891621-31.892361 0-17.594727-14.269566-31.864732-31.891621-31.864732L192.418102-50.823134c-17.595448 0-31.866037 14.268982-31.866037 31.864732 0 17.622356 14.27059 31.892361 31.866037 31.892361L756.299293 12.933959z"  horiz-adv-x="1024" />

    
    <glyph glyph-name="time" unicode="&#58900;" d="M699.16 237.662h-175.988v242.982c0 18.745-13.74 33.923-30.7 33.923-16.962 0-30.717-15.178-30.717-33.923v-270.476c0-0.589 0.014-1.176 0.041-1.759-0.026-0.485-0.041-0.973-0.041-1.463 0-8.286 3.633-15.797 9.527-21.32 5.513-5.807 12.971-9.381 21.19-9.381 0.487 0 0.97 0.015 1.451 0.041 0.581-0.027 1.166-0.041 1.754-0.041h203.482c18.745 0 33.923 13.74 33.923 30.699s-15.178 30.718-33.922 30.718zM512 744.56c-249.753 0-452.205-202.451-452.205-452.205s202.452-452.206 452.205-452.206c249.738 0 452.205 202.451 452.205 452.205s-202.467 452.206-452.205 452.206zM512-92.857c-212.741 0-385.212 172.471-385.212 385.212 0 212.758 172.471 385.212 385.212 385.212s385.212-172.455 385.212-385.212c0-212.741-172.472-385.212-385.212-385.212z"  horiz-adv-x="1024" />

    
    <glyph glyph-name="ryaochi" unicode="&#58904;" d="M679.6357 754.0032l8.777409 0c47.9884-1.517 95.8399-14.4502 136.9767-39.4493 63.2917-37.2677 110.6845-100.6598 128.0484-172.0593 5.4205-20.1933 7.4313-41.1021 8.5565-61.925l0-11.859959c-1.3961-31.7465-6.7487-63.5099-18.4562-93.1608-24.3695-64.8061-74.0788-119.6259-136.1093-150.3331-68.0127-34.4566-150.5091-38.8537-221.8097-11.8939-23.4311-23.3112-46.7272-46.7593-70.1423-70.0715-8.2138 0.019-16.4455 0.035-24.6593-0.068 0.052-8.1105 0.019-16.238 0.1019-24.3505-14.9275-15.2856-30.1618-30.2635-45.2432-45.3962-8.2308 0.017-16.4445 0.05-24.6753-0.0859 0.051-8.1115 0.017-16.239 0.1029-24.3665-20.8247-21.0467-41.7854-41.9895-62.814-62.8314-13.9921 0.1039-27.9822 0.054-41.9563 0.054 0.051-13.9745-0.068-27.9301 0.0849-41.9046-20.8237-21.0277-41.7334-41.9875-62.797-62.7774L134.740814-118.476159c-15.2183 14.9629-30.3167 30.0426-45.2622 45.2593L89.478614 45.657444c110.4446 110.8339 221.298 221.256 331.8106 332.0209-17.3829 45.8389-21.7102 96.4326-13.4115 144.7089 14.3149 87.1629 73.3283 165.3279 153.0145 203.3281C597.6519 744.0849 638.6708 752.9979 679.6357 754.0032zM652.6949 717.0762c-10.5333-1.5669-21.1136-3.016-31.338-6.0999-75.1181-18.7283-139.0234-76.1374-166.375-148.4923-16.1207-41.2031-20.1941-86.9241-12.526-130.4635 11.7075-68.1278 54.2944-130.1558 113.5467-165.7027 47.019-29.1223 104.2926-40.8293 159.0307-33.4513 32.0376 4.0902 63.1538 14.9109 90.983 31.2698 53.8497 31.2868 94.9035 83.9761 111.6199 144.0104 11.6056 40.9143 12.3381 84.9134 1.8568 126.1345-16.6484 68.5715-65.2165 128.367-128.5591 159.33C748.5168 714.8777 699.7459 722.8193 652.6949 717.0762zM131.7247 38.7062c-2.4035-2.6242-5.6064-4.7878-7.2084-8.0256-0.4777-18.3186 0.1359-36.6721-0.2728-55.0077 89.5689 90.0769 179.6666 179.6602 269.3554 269.6172 4.2603 4.2261 10.0196 7.9736 16.2916 7.0882 8.9473-0.2888 16.5644-9.0828 15.5761-17.9948-0.2219-7.5829-6.356-13.0871-11.3668-18.0628-69.9035-69.8327-139.739-139.7173-209.6085-209.5649-24.1986-24.4544-48.9088-48.4122-72.7836-73.1564 5.5894-5.1455 10.6842-10.8037 16.2227-15.9822 1.585-1.7578 4.2093-0.9883 6.271-1.2621 27.8283 0.1529 55.6565-0.034 83.4858 0.0859 2.0787-0.1019 3.3059 1.9077 4.737 3.0499 12.9338 13.1551 26.1583 26.0204 39.0421 39.2264-0.1359 20.7909-0.034 41.5968-0.051 62.3867 20.6878 0.1369 41.4106-0.2558 62.0984 0.1699 13.1906 11.6041 24.9661 24.8801 37.73 36.9959 1.7719 2.2165 5.0788 3.9703 4.8729 7.1571 0.1199 14.3123-0.034 28.6276 0.034 42.9429 15.0814 0.05 30.1458-0.052 45.2272 0.05 7.89 8.5912 17.1611 16.1051 24.3525 25.1879 0.4777 14.8419 0.018 29.7179 0.1879 44.5768 15.1334 0.0849 30.2657-0.1179 45.3821 0.1019 16.5644 16.8546 33.3837 33.4163 50.0341 50.152-11.7755 7.1232-23.9447 13.7347-34.6969 22.3748-33.3158 24.2665-60.3436 56.5237-80.2149 92.5143C334.8054 241.8474 233.325 140.2163 131.7247 38.7062zM582.0249 638.0588c28.0491 17.3982 60.6993 27.2825 93.6753 28.4067 37.9678 1.517 76.3104-8.6571 108.5199-28.8145 30.1118-18.7793 54.889-46.0278 70.585-77.8762 13.8522-27.9301 20.6359-59.3008 19.7164-90.4517-1.0054-37.6085-13.3435-74.9102-35.2925-105.4985-9.423-13.6487-21.4873-25.135-32.3094-37.6425-91.1359 90.6735-181.9001 181.7378-272.8142 272.6501C549.5096 612.5661 564.1313 627.477 582.0249 638.0588zM584.8711 597.4174c73.5162-73.4962 147.0144-147.0093 220.5315-220.5225 27.1637 33.5533 39.195 78.6767 32.5653 121.3127-5.2487 36.1595-23.8908 70.0705-51.2773 94.1831-27.0458 24.2316-62.8839 38.2051-99.1289 39.2104C650.7361 632.8104 613.5508 620.6096 584.8711 597.4174z"  horiz-adv-x="1024" />

    
    <glyph glyph-name="gouxuan" unicode="&#59057;" d="M511.996418 745.280436c-245.919922 0-445.279413-199.358467-445.279413-445.280436 0-245.920946 199.358467-445.280436 445.279413-445.280436 245.922992 0 445.282482 199.358467 445.282482 445.280436C957.278901 545.921969 757.919411 745.280436 511.996418 745.280436zM768.036839 430.021286 458.195072 120.179518c-6.070252-6.070252-18.201547-10.147104-30.187533-10.147104-0.799202 0-1.591241 0.016373-2.373047 0.056282-0.13303 0.00614-0.265036 0.008186-0.397043 0.008186-0.134053 0-0.26606-0.002047-0.397043-0.008186-0.787946-0.039909-1.596358-0.056282-2.405793-0.056282-12.152784 0-24.399713 4.076852-30.473035 10.149151L255.939625 256.201471c-13.690814 13.69593-13.690814 35.973306 0 49.66412 6.633071 6.631024 15.45397 10.282181 24.833595 10.282181s18.198477-3.651157 24.831548-10.283204l113.542986-113.541963c1.639337-1.639337 3.786233-2.455935 5.933129-2.455935 2.14792 0 4.293793 0.817622 5.933129 2.455935l287.363823 287.357683c6.631024 6.634094 15.448854 10.287297 24.830525 10.287297 9.378601 0 18.195408-3.653203 24.828478-10.284227 6.634094-6.635117 10.286274-15.451924 10.286274-24.830525C778.32209 445.473209 774.667863 436.654356 768.036839 430.021286z"  horiz-adv-x="1024" />

    
    <glyph glyph-name="jinlingyingcaiwangtubiao55" unicode="&#59226;" d="M805.325 232.243v386.458c0 40.371-32.845 73.19-73.19 73.19h-605.645c-40.346 0-73.19-32.819-73.19-73.19v-386.458c0-40.346 32.845-73.165 73.19-73.165h93.389l1.946-195.405 200.346 195.405h309.99c40.346 0 73.165 32.819 73.165 73.165zM406.554 197.478l-147.2-143.59-1.434 143.59h-131.43c-19.2 0-34.79 15.59-34.79 34.765l0 386.458c0 19.2 15.59 34.79 34.79 34.79h605.67c19.2 0 34.79-15.59 34.79-34.79v-386.458c0-19.174-15.59-34.765-34.79-34.765h-325.606zM897.51 534.093h-59.674v-38.4h59.674c19.2 0 34.79-15.59 34.79-34.79v-319.718c0-19.2-15.59-34.79-34.79-34.79h-142.976v-132.301l-126.131 132.301h-190.413v-38.4h173.952l180.966-189.85v189.85h104.576c40.346 0 73.19 32.819 73.19 73.19l0 319.718c0.026 40.371-32.819 73.19-73.165 73.19z"  horiz-adv-x="1024" />

    
    <glyph glyph-name="guanbi" unicode="&#59017;" d="M534.624 300 907.312 672.688c6.256 6.256 6.256 16.368 0 22.624s-16.368 6.256-22.624 0L512 322.624 139.312 695.312c-6.256 6.256-16.368 6.256-22.624 0s-6.256-16.368 0-22.624L489.376 300 116.688-72.688c-6.256-6.256-6.256-16.368 0-22.624C119.808-98.432 123.904-100 128-100s8.192 1.568 11.312 4.688L512 277.376l372.688-372.688C887.808-98.432 891.904-100 896-100s8.192 1.568 11.312 4.688c6.256 6.256 6.256 16.368 0 22.624L534.624 300z"  horiz-adv-x="1024" />

    
    <glyph glyph-name="920xiangce" unicode="&#60190;" d="M853.474208 691.742079l-683.59924 0c-58.82271 0-106.507756-47.685046-106.507756-106.507756l0-569.774845c0-58.82271 47.685046-106.507756 106.507756-106.507756l683.59924 0c58.82271 0 106.507756 47.685046 106.507756 106.507756L959.981964 585.234323C959.980941 644.057033 912.296919 691.742079 853.474208 691.742079zM169.874969 645.6933l683.59924 0c33.337269 0 60.458977-27.121707 60.458977-60.458977l0-439.282838c-1.902326-0.014326-3.833305-0.373507-5.702885-1.139963-229.218542-93.965092-311.319421-15.97995-398.241097 66.585511-29.931706 28.431539-60.883649 57.833173-97.662297 78.385255-33.263591 18.588357-70.985728 28.125571-112.118544 28.346605-0.490164 0.002047-0.979304 0.004093-1.470491 0.004093-31.968086 0-66.001203-5.589298-101.178377-16.619516-38.684044-12.129248-70.109778-28.081569-88.144526-38.276768L109.414969 585.234323C109.415992 618.571592 136.537699 645.6933 169.874969 645.6933zM853.474208-44.999498l-683.59924 0c-33.337269 0-60.458977 27.121707-60.458977 60.458977L109.415992 227.425078c0.135076 0.083911 0.274246 0.154519 0.407276 0.242524 1.598404 1.065262 161.390737 105.805768 287.527552 35.317367 33.409924-18.670222 61.624523-45.471634 91.494831-73.845869 44.097334-41.888016 89.695858-85.201497 156.24146-105.675808 25.753547-7.922437 52.673663-11.850909 81.567737-11.849886 11.564383 0 23.449062 0.629333 35.69599 1.883907 45.796022 4.689812 95.439676 17.950837 151.581324 40.500413l0-98.538247C913.932162-17.877791 886.811478-44.999498 853.474208-44.999498zM692.394556 330.30112c56.246025 0 101.842503 45.596478 101.842503 101.842503s-45.596478 101.842503-101.842503 101.842503-101.842503-45.596478-101.842503-101.842503S636.148531 330.30112 692.394556 330.30112zM692.394556 503.286939c39.228443 0 71.143317-31.914874 71.143317-71.143317s-31.914874-71.143317-71.143317-71.143317-71.143317 31.914874-71.143317 71.143317S653.166113 503.286939 692.394556 503.286939zM552.907689 82.137087c-16.72901 13.921058-32.730449 29.121248-48.205908 43.821041-29.587875 28.105105-60.182684 57.167001-96.118128 77.248362-32.110325 17.943674-68.575842 27.15343-108.385523 27.372418-0.48607 0.002047-0.972141 0.004093-1.459235 0.004093-31.172977 0-64.415079-5.466502-98.831936-16.252149-4.044106-1.267876-6.29538-5.573949-5.028527-9.619078 1.267876-4.045129 5.574972-6.297426 9.619078-5.027503 52.29504 16.389272 128.854717 27.981285 196.597587-9.875928 34.252105-19.139919 62.805418-46.263673 93.03593-74.978668 15.654538-14.869662 31.842219-30.246885 48.958038-44.490284 1.434675-1.194198 3.175319-1.775436 4.90573-1.775436 2.200108 0 4.384867 0.941442 5.903453 2.764973C556.608987 74.587134 556.165896 79.425326 552.907689 82.137087zM156.414399 198.092006c-2.065032-0.893346-4.088108-1.786693-6.066159-2.676969-3.865028-1.739621-5.587252-6.284123-3.847631-10.148128 1.279133-2.842745 4.074805-4.527107 7.002484-4.527107 1.052982 0 2.12336 0.217964 3.145643 0.678452 1.911536 0.860601 3.865028 1.724271 5.861498 2.586918 3.889587 1.683339 5.679349 6.201236 3.996011 10.090822C164.822906 197.985582 160.307056 199.776368 156.414399 198.092006z"  horiz-adv-x="1024" />

    
    <glyph glyph-name="iconshezhi01" unicode="&#59015;" d="M958.926936 178.168234c1.284249-7.694239 0.963954-16.989953-0.962931-27.891234-1.921769-10.902304-5.126764-21.963221-9.616008-33.17968-4.486174-11.222599-9.93835-21.319561-16.349363-30.29498-6.411013-8.978489-13.464663-15.390525-21.158902-19.238157-7.691169-3.847631-14.423501-5.7694-20.198018-5.7694-5.7694 0-12.180414 1.284249-19.23304 3.848655-6.411013 1.920746-14.427594 3.685949-24.044626 5.287423-9.616008 1.604544-19.393699 1.925862-29.332049 0.962931-9.93835-0.962931-19.875676-3.045359-29.814026-6.250354-9.93835-3.206018-18.435884-8.658194-25.489534-16.349363-15.385409-16.028045-24.364921-34.30327-26.928303-54.82056-2.564405-20.518313 0.320295-40.072671 8.658194-58.669214 6.411013-12.82305 5.447059-25.645077-2.8847-38.468127-3.848655-5.131881-9.942443-10.419304-18.276249-15.871479-8.336876-5.449106-17.47193-10.414187-27.409257-14.905478-9.93835-4.489244-20.357654-8.016581-31.257911-10.578939-10.897188-2.564405-20.518313-3.848655-28.851095-3.848655-5.7694 0-11.221576 2.243087-16.34834 6.733355-5.131881 4.489244-8.658194 9.295714-10.579963 14.427594l-0.962931 0c-7.05365 19.875676-19.073404 37.027311-36.06438 51.454906-16.990976 14.422478-36.707017 21.636786-59.150168 21.636786-21.796422 0-41.511439-7.214309-59.146075-21.636786-17.632589-14.427594-29.973662-31.257911-37.027311-50.491974-3.204995-7.695263-8.016581-13.304004-14.427594-16.830317-6.411013-3.526313-13.464663-5.29254-21.158902-5.29254-8.975419 0-19.073404 1.605567-30.29498 4.811586-11.217483 3.206018-22.439058 7.214309-33.661657 12.019755-11.217483 4.811586-21.315468 10.419304-30.29498 16.830317-8.974395 6.411013-15.706727 12.82305-20.196994 19.234063-3.204995 4.489244-4.966105 9.781784-5.287423 15.872502-0.320295 6.089695 2.082428 14.582113 7.214309 25.484418 7.05365 14.747889 9.777691 31.578206 8.172123 50.490951-1.600451 18.917862-9.777691 36.390815-24.526603 52.41886-8.974395 9.616008-19.875676 15.868409-32.697703 18.752086-12.82305 2.8847-25.003464 4.00829-36.546358 3.365654-13.464663-0.642636-27.249621-3.206018-41.35692-7.695263-8.974395-2.564405-17.949814-1.921769-26.928303 1.926886-7.05365 2.563382-13.625322 8.492418-19.715017 17.793248-6.090718 9.295714-11.542894 19.554358-16.349363 30.776957-4.811586 11.216459-8.497535 22.759353-11.06194 34.619472-2.564405 11.864212-3.204995 21.641903-1.921769 29.336142 1.921769 14.102183 8.332782 23.080671 19.234063 26.929326 19.234063 7.691169 36.546358 20.357654 51.935859 37.985126 15.386432 17.633612 23.082718 37.34863 23.082718 59.150168 0 22.439058-7.695263 41.99444-23.082718 58.664098-15.390525 16.674775-32.701796 28.855188-51.935859 36.550451-5.7694 1.920746-10.579963 6.570649-14.427594 13.945617-3.847631 7.368828-5.7694 14.904455-5.7694 22.599717 0 8.331759 1.284249 17.632589 3.847631 27.891234 2.564405 10.259668 5.930059 20.198018 10.099009 29.814026 4.168949 9.616008 8.974395 18.430768 14.427594 26.447349 5.448082 8.016581 11.377118 13.945617 17.789155 17.794271 5.131881 3.204995 10.099009 4.485151 14.909571 3.847631 4.805446-0.641613 10.097986-1.926886 15.866363-3.847631 19.238157-7.695263 39.274492-10.099009 60.107983-7.214309 20.838607 2.8847 39.275515 12.019755 55.30356 27.411303 7.695263 7.690146 13.304004 17.151635 16.830317 28.369118 3.526313 11.221576 5.7694 22.282492 6.731308 33.178657 0.962931 10.902304 0.962931 20.838607 0 29.819143-0.962931 8.974395-1.76111 15.385409-2.402723 19.234063-1.283226 3.847631-2.407839 8.331759-3.365654 13.46364-0.962931 5.127787-0.480954 9.618055 1.440815 13.464663 3.847631 8.975419 10.739599 16.830317 20.677948 23.562649 9.93835 6.733355 20.677948 12.341073 32.220842 16.830317 11.537777 4.490268 22.760376 7.856945 33.661657 10.099009 10.896164 2.242064 19.554358 3.365654 25.965371 3.365654 8.337899 0 14.909571-2.724041 19.715017-8.17724 4.811586-5.447059 8.17724-11.056823 10.099009-16.830317 7.05365-17.307178 18.596544-32.537044 34.623565-45.681412 16.028045-13.143345 34.945907-19.715017 56.742329-19.715017 22.439058 0 42.319851 6.250354 59.627029 18.752086 17.312294 12.505825 29.496801 28.373211 36.550451 47.607274 2.564405 5.131881 6.571672 10.419304 12.019755 15.867386 5.449106 5.453199 11.06194 8.17724 16.830317 8.17724 8.975419 0 18.757203-1.284249 29.333072-3.847631 10.578939-2.564405 20.998243-6.090718 31.257911-10.579963 10.258645-4.485151 19.715017-10.258645 28.372188-17.312294 8.655124-7.05365 15.547091-14.744819 20.678972-23.080671 3.204995-5.126764 4.163833-10.740622 2.8847-16.830317-1.284249-6.090718-2.564405-10.419304-3.848655-12.983709-8.336876-18.591427-10.900258-38.150902-7.694239-58.668191 3.204995-20.513196 12.505825-38.468127 27.892257-53.857629 15.385409-15.386432 34.302247-23.883967 56.742329-25.484418 22.443152-1.605567 43.277666 2.081405 62.515822 11.06194 5.126764 3.204995 11.377118 4.485151 18.751063 3.847631 7.374968-0.641613 13.625322-3.526313 18.757203-8.658194 9.616008-8.975419 18.110473-22.599717 25.484418-40.875966 7.373944-18.270109 12.341073-36.705993 14.908548-55.29742 1.280156-10.900258-0.480954-19.399839-5.29254-25.488511-4.805446-6.090718-9.776667-10.099009-14.904455-12.019755-19.880793-7.05365-36.870746-19.399839-50.972928-37.027311-14.107299-17.633612-21.158902-37.668924-21.158902-60.114123 0-21.796422 5.929036-40.869826 17.793248-57.223283 11.859096-16.34834 27.409257-28.046776 46.64332-35.100426 4.486174-2.564405 8.332782-5.131881 11.537777-7.695263C951.552991 194.517597 956.363554 187.143653 958.926936 178.168234L958.926936 178.168234zM511.715521 91.608809c28.850072 0 56.100716 5.452175 81.745792 16.349363 25.64917 10.900258 47.927569 25.970488 66.844407 45.204551 18.911722 19.23304 33.822316 41.516556 44.718481 66.840314 10.900258 25.327852 16.349363 52.41886 16.349363 81.268932 0 28.855188-5.449106 55.94415-16.349363 81.267908-10.896164 25.328875-25.805736 47.447639-44.718481 66.360384-18.916838 18.916838-41.196261 33.821293-66.844407 44.722574-25.645077 10.900258-52.894697 16.34834-81.745792 16.34834-28.855188 0-55.945173-5.447059-81.268932-16.34834-25.327852-10.902304-47.446615-25.805736-66.363454-44.722574-18.913768-18.911722-33.822316-41.030485-44.718481-66.360384-10.900258-25.323758-16.35448-52.41272-16.35448-81.267908 0-28.850072 5.453199-55.94108 16.35448-81.268932 10.896164-25.323758 25.804712-47.607274 44.718481-66.840314 18.916838-19.234063 41.035602-34.30327 66.363454-45.204551C455.770348 97.060985 482.861356 91.608809 511.715521 91.608809L511.715521 91.608809zM511.715521 91.608809"  horiz-adv-x="1024" />

    
    <glyph glyph-name="123" unicode="&#58922;" d="M606.403465 300.032678 983.97322 677.573675C1010.045506 703.648573 1010.045506 746.019637 983.97322 771.963824 957.898318 798.038727 915.65405 798.038727 889.583067 771.963824L512.005472 394.414987 134.401737 771.962518C108.326834 798.03742 66.086486 798.03742 40.011583 771.962518 13.936685 745.887615 13.936685 703.648578 40.011583 677.573675L417.569575 299.98693 40.011583-77.540993C13.936685-103.614589 13.936685-145.85755 40.011583-171.933759 66.02113-198.004738 108.326834-198.004738 134.401737-171.933759L511.957111 205.592857 889.584374-172.061858C915.656663-198.006049 957.96498-198.006049 984.038576-172.061858 1010.046812-145.986955 1010.046812-103.614589 984.03727-77.543606L606.403465 300.032678Z"  horiz-adv-x="1024" />

    
    <glyph glyph-name="cubanzhuye" unicode="&#59426;" d="M926.219378 322.573511 536.143644 712.626489c-13.334756 13.334756-34.952533 13.334756-48.287289 0L97.780622 322.573511c-10.6496-10.672356-12.401778-26.396444-6.030222-39.207822C93.525333 272.579556 102.468267 264.228267 113.777778 264.228267l91.022222 0 0-352.711111 0 0c0-18.887111 15.291733-34.133333 34.133333-34.133333l546.133333 0 0 0c4.073244 0 7.850667 0.978489 11.4688 2.321067C809.688178-115.561956 819.2-103.296711 819.2-88.482844l0 0 0 352.711111 91.022222 0c11.309511 0 20.252444 8.351289 22.027378 19.160178C938.621156 296.177067 936.846222 311.901156 926.219378 322.573511zM773.688889 309.739378c-11.628089 0-20.866844-8.851911-22.232178-20.138667L751.160889 289.600711l0-1.456356C751.138133 287.734756 750.933333 287.370667 750.933333 286.983822c0-0.432356 0.182044-0.750933 0.227556-1.160533l0-9.102222C751.092622 276.334222 750.933333 275.992889 750.933333 275.606044l0-329.955556-207.098311 0C545.109333-50.754133 546.133333-47.022222 546.133333-42.971733l0 227.555556c0 18.8416-15.291733 34.133333-34.133333 34.133333-18.864356 0-34.133333-15.291733-34.133333-34.133333l0-227.555556c0-4.050489 1.001244-7.7824 2.298311-11.377778L273.066667-54.349511 273.066667 261.588622l0 13.994667 0 14.904889-0.728178 0c-1.752178 10.831644-10.717867 19.228444-22.050133 19.228444L181.498311 309.716622 512 640.218311l330.501689-330.478933L773.688889 309.739378z"  horiz-adv-x="1024" />

    
    <glyph glyph-name="event" unicode="&#58980;" d="M183.688579 685.887744c-2.331092-0.00307-4.662183-0.320295-6.993275-0.491187 0-257.102612 0-514.206248 0-771.308861 31.794124 0 63.58927 0 95.383394 0 0.106424 1.755993 0.306992 3.51301 0.306992 5.269004 0.014326 253.348102 0.014326 506.696204 0.001023 760.044306 0 2.068102-0.177032 4.136204-0.285502 6.508227C242.149039 685.910257 212.919321 685.921513 183.688579 685.887744zM847.254553 673.980553c0 2.050706 0 4.100388 0 6.987135-2.006703-1.01512-3.032056-1.489934-4.0175-2.037403-42.143842-23.417339-86.886883-39.745213-134.307915-48.390104-51.553143-9.398044-102.518908-7.836479-152.862503 8.246825-61.711504 19.716041-124.392078 35.395138-189.144848 41.212634-15.162328 1.362021-30.43108 1.530866-46.149063 2.27174 0-162.281013 0-322.840826 0-484.026902 1.994424 1.26583 3.460822 2.153036 4.883217 3.104711 34.615379 23.152303 71.708182 41.114396 111.792109 52.549843 60.493769 17.257036 119.830179 16.780175 177.653119-11.232832 23.369244-11.32186 48.211025-18.689664 74.110905-21.866007 31.007201-3.803629 60.751642-0.044002 87.918375 16.378016 29.979802 18.122753 48.987714 45.319162 61.265342 77.405951 4.080945 10.665921 8.413624 22.156626 8.479115 33.29429C847.505263 456.577105 847.254553 565.279852 847.254553 673.980553z"  horiz-adv-x="1024" />

    
    <glyph glyph-name="ziliaorenzheng" unicode="&#58974;" d="M512.000015 812c-282.767368 0-512.000015-229.232647-512.000015-512.000015s229.232647-512.000015 512.000015-512.000015c282.767368 0 512.000015 229.232647 512.000015 512.000015C1024.000031 582.767353 794.767384 812 512.000015 812L512.000015 812zM512.000015-10.210585 255.692808 122.817259l69.130242 221.562887L512.000015 251.257583l187.187206 93.132803 69.130242-221.562887L512.000015-10.210585 512.000015-10.210585zM848.588825 230.613743l-33.259521-16.05632L815.329304 438.864629 512.000015 287.957744 155.904005 465.11999 512.000015 642.271995l356.106251-177.152005-51.722242-25.733121L848.588825 230.613743 848.588825 230.613743zM848.588825 230.613743"  horiz-adv-x="1025" />

    
    <glyph glyph-name="shouji2" unicode="&#58975;" d="M512.716485 812c-282.653233 0-511.774819-229.131822-511.774819-511.764584 0-282.642997 229.121587-511.785055 511.774819-511.785055 282.642997 0 511.774819 229.131822 511.774819 511.785055C1024.491304 582.868178 795.359482 812 512.716485 812zM734.212626 54.655152c0-38.956299-34.95422-70.860341-77.02211-70.860341L368.221982-16.20519c-42.047419 0-77.001639 31.893807-77.001639 70.860341L291.220343 545.805446c0 38.761825 34.95422 70.83987 77.001639 70.83987l288.968534 0c42.057655 0 77.02211-32.078046 77.02211-70.83987L734.212626 54.655152zM512.921195 61.420815c-14.503698 0-27.472072-11.095278-27.472072-25.025789 0-13.930511 12.958138-24.984847 27.472072-24.984847 15.291832 0 27.072888 11.044101 27.072888 24.984847C539.983847 50.325537 528.202791 61.420815 512.921195 61.420815zM348.06829 540.2271l329.306625 0 0-453.596258-329.306625 0 0 453.596258ZM471.262724 565.375715l82.917756 0c3.828076 0 6.898725 2.865939 6.898725 6.376714 0 3.531246-3.070649 6.376714-6.898725 6.376714l-82.917756 0c-3.807605 0-6.90896-2.855703-6.90896-6.376714C464.353764 568.241654 467.45512 565.375715 471.262724 565.375715z"  horiz-adv-x="1025" />

    
    <glyph glyph-name="jiaobiao" unicode="&#58954;" d="M15.515152 812 1008.484848 812 1008.484848-208.80997 15.515152 812Z"  horiz-adv-x="1024" />

    
    <glyph glyph-name="shimingrenzheng" unicode="&#58978;" d="M394.971429 277.012245l39.706122-110.759184 39.706122 104.489796C463.934694 268.653061 455.57551 268.653061 447.216327 268.653061 428.408163 268.653061 411.689796 270.742857 394.971429 277.012245zM758.595918 231.036735c-12.538776 2.089796-25.077551-4.179592-31.346939-25.077551-6.269388-22.987755-33.436735-81.502041-33.436735-81.502041-12.538776 0-29.257143 37.616327-43.885714 66.873469-16.718367 31.346939-16.718367 35.526531-29.257143 35.526531-12.538776 0-37.616327-4.179592-31.346939-35.526531 6.269388-33.436735 37.616327-135.836735 77.322449-140.016327 39.706122-4.179592 60.604082 0 73.142857 27.167347 14.628571 27.167347 45.97551 110.759184 43.885714 123.297959C783.673469 212.228571 769.044898 228.946939 758.595918 231.036735zM512 809.910204C229.877551 809.910204 2.089796 582.122449 2.089796 300 2.089796 17.877551 229.877551-209.910204 512-209.910204S1021.910204 17.877551 1021.910204 300C1021.910204 582.122449 794.122449 809.910204 512 809.910204zM436.767347 17.877551c-56.42449 0-144.195918 2.089796-179.722449 8.359184-54.334694 10.44898-43.885714 43.885714-43.885714 135.836735 0 68.963265 102.4 112.84898 150.465306 129.567347-50.155102 29.257143-83.591837 83.591837-83.591837 146.285714 0 94.040816 75.232653 169.273469 169.273469 169.273469s169.273469-75.232653 169.273469-169.273469c0-62.693878-35.526531-121.208163-85.681633-148.37551-20.897959-33.436735-35.526531-81.502041-35.526531-125.387755 0-54.334694 18.808163-106.579592 52.244898-144.195918C509.910204 17.877551 468.114286 17.877551 436.767347 17.877551zM689.632653-7.2c-94.040816 0-169.273469 75.232653-169.273469 169.273469S597.681633 331.346939 689.632653 331.346939s167.183673-75.232653 169.273469-169.273469C858.906122 70.122449 783.673469-7.2 689.632653-7.2z"  horiz-adv-x="1024" />

    
    <glyph glyph-name="shenfenzheng" unicode="&#59008;" d="M599.771531 300.011256l205.39188 0c11.357675 0 20.547988 10.033517 20.547988 22.407336 0 12.374842-9.190313 22.408359-20.547988 22.408359L599.771531 344.826951c-11.357675 0-20.547988-10.033517-20.547988-22.408359C579.223542 310.04375 588.414879 300.011256 599.771531 300.011256zM599.771531 389.642646l205.39188 0c11.357675 0 20.547988 10.033517 20.547988 22.408359s-9.190313 22.407336-20.547988 22.407336L599.771531 434.458341c-11.357675 0-20.547988-10.033517-20.547988-22.407336S588.414879 389.642646 599.771531 389.642646zM892.935454 658.538863 131.064546 658.538863c-37.135782 0-67.224054-30.089295-67.224054-67.224054l0-582.607104c0-37.114293 30.089295-67.224054 67.224054-67.224054l761.870908 0c37.135782 0 67.224054 30.110785 67.224054 67.224054L960.159508 591.314809C960.159508 628.449567 930.071236 658.538863 892.935454 658.538863zM892.935454 8.707704 131.064546 8.707704 131.064546 591.314809l761.870908 0L892.935454 8.707704zM276.715811 98.339094l156.855444 0c99.588159 0 100.836593 22.73684 100.836593 78.428234 0 55.692417-45.144176 100.836593-100.836593 100.836593l-4.196579 0c35.797297 24.157189 59.340503 65.093531 59.340503 111.525026 0 74.259284-60.199057 134.448108-134.448108 134.448108-74.248028 0-134.448108-60.187801-134.448108-134.448108 0-46.431495 23.543206-87.367837 59.340503-111.525026l-2.445702 0c-55.692417 0-100.836593-45.144176-100.836593-100.836593C175.880241 121.074911 176.142208 98.339094 276.715811 98.339094zM265.402137 389.773629c0 49.499367 40.133046 89.632413 89.632413 89.632413 49.498344 0 89.63139-40.133046 89.63139-89.632413 0-49.5096-40.133046-89.63139-89.63139-89.63139C305.535183 300.14224 265.402137 340.264029 265.402137 389.773629zM599.771531 210.378843l205.39188 0c11.357675 0 20.547988 10.04375 20.547988 22.407336 0 12.375865-9.190313 22.408359-20.547988 22.408359L599.771531 255.194538c-11.357675 0-20.547988-10.033517-20.547988-22.408359C579.223542 220.422593 588.414879 210.378843 599.771531 210.378843z"  horiz-adv-x="1024" />

    
    <glyph glyph-name="huiyuan" unicode="&#58907;" d="M511.997442 73.744953 185.955714 73.744953c0 0-27.434839 72.906473 60.525492 120.195499 0 0 62.071707 27.434839 56.293097 123.918287l0 191.82898c0 0 1.696642 78.341253 82.783425 108.925828 27.148313 10.250458 62.206784 17.183358 109.015879 13.146415 0 0-15.263635 54.493102 17.422811 52.316529L511.996418 718.955884c0 0-52.30118 6.52767-52.30118-52.316529 0 0-61.051471-2.942005-100.357685-23.172769-79.630618-40.955784-90.061179-105.188714-91.426269-133.778866l0-191.798281c0 0 4.442172-71.977311-43.011606-98.841146 0 0-99.080599-46.11734-79.06166-145.30334 0 0 7.414877-34.878368 34.877345-34.878368l331.280032 0L511.995395 73.744953 511.997442 73.744953zM511.997442-48.328313c48.15986 0 87.179548 31.245631 87.179548 69.755714L424.83222 21.4274C424.83222-17.081659 463.852932-48.328313 511.997442-48.328313L511.997442-48.328313zM799.110555 219.048293c-47.454802 26.863834-42.998303 98.841146-42.998303 98.841146l0 191.798281c-1.381463 28.590152-11.827373 92.822059-91.456968 133.778866-39.290865 20.230764-100.341313 23.172769-100.341313 23.172769 0 58.8442-52.317553 52.316529-52.317553 52.316529l0-34.877345c32.686447 2.175549 17.439184-52.331879 17.439184-52.331879 46.823422 4.051269 81.851193-2.880607 109.015879-13.132088 81.101109-30.600949 82.781378-108.925828 82.781378-108.925828l0-191.82898c-5.777587-96.484472 56.295144-123.918287 56.295144-123.918287 87.959308-47.289026 60.525492-120.195499 60.525492-120.195499L511.997442 73.745976l0-34.878368 331.279009 0c27.465538 0 34.878368 34.878368 34.878368 34.878368C898.190131 172.91458 799.110555 219.048293 799.110555 219.048293L799.110555 219.048293zM799.110555 219.048293M300.839231 665.889271c0-43.552935-35.297924-78.850859-78.82016-78.850859-43.551912 0-78.849836 35.298947-78.849836 78.850859 0 43.522236 35.298947 78.82016 78.849836 78.82016C265.541307 744.708408 300.839231 709.411507 300.839231 665.889271z"  horiz-adv-x="1024" />

    
    <glyph glyph-name="anquan" unicode="&#58983;" d="M512 748.999l389.001-167.001 0-253.001c0-58-9.844-114.343-29.5-169.001-19.671-54.672-46.5-104-80.5-148-35.344-46-76.672-85.001-124-117.001-47.344-32-99.001-54.656-155.001-68-56 13.344-107.671 36-155.001 68-47.344 32-88.672 71.001-124 117.001-34 44-60.844 93.328-80.5 148-19.671 54.656-29.5 111.001-29.5 169.001l0 253.002 389.001 166.999zM512 288.999l0 369.001-302.999-131.001 0-238 302.999 0 0-374c40.656 11.328 78 29.156 112 53.5 34 24.329 64 53.156 90 86.5 26.656 32.656 48.656 68.828 66 108.5 17.328 39.657 29.001 81.5 35.001 125.5l-303.001 0z"  horiz-adv-x="1024" />

    
    <glyph glyph-name="huodong" unicode="&#58910;" d="M326.352813 129.716732c-36.157501 0-71.207785 8.374738-104.179734 24.891923-31.622208 15.84078-59.971883 38.45994-84.262102 67.228147-49.482995 58.606793-76.735685 136.358621-76.735685 218.931245 0 82.573647 27.251667 160.325475 76.735685 218.933291 24.289196 28.768207 52.638871 51.387367 84.262102 67.229171 32.970926 16.517185 68.022233 24.891923 104.179734 24.891923s71.207785-8.374738 104.178711-24.891923c31.622208-15.84078 59.971883-38.45994 84.261079-67.229171 49.484018-58.607816 76.735685-136.359644 76.735685-218.933291 0-82.572624-27.251667-160.324452-76.735685-218.931245-24.289196-28.768207-52.638871-51.387367-84.261079-67.228147C397.560598 138.090447 362.510314 129.716732 326.352813 129.716732zM326.352813 719.076634c-128.162962 0-232.4307-124.848473-232.4307-278.308587 0-153.458067 104.268762-278.30654 232.4307-278.30654s232.4307 124.847449 232.4307 278.30654C558.783513 594.228161 454.515774 719.076634 326.352813 719.076634zM736.601384 123.150176c-46.924729 0-91.444689 15.620769-128.860856 45.233204-37.033451 29.312606-65.181535 70.792323-81.400938 119.955022-2.833535 8.587586 1.831718 17.845437 10.419304 20.677948 8.588609 2.834558 17.844413-1.831718 20.677948-10.419304 28.647457-86.835717 98.889241-142.700049 179.210591-142.701073 0.478907 0 0.955768 0.002047 1.433652 0.00614 106.820887 0.88516 192.873776 105.421005 191.82898 233.026264-0.074701 9.041934 7.194866 16.432251 16.237823 16.505929 0.045025 0 0.092098 0 0.137123 0 8.979512 0 16.296151-7.241938 16.368806-16.238846 0.575098-70.060659-22.11774-136.239917-63.896262-186.345082-42.430368-50.886971-99.396801-79.189573-160.40427-79.694063C737.77 123.153246 737.183645 123.150176 736.601384 123.150176zM946.278871 372.689532c-8.979512 0-16.296151 7.241938-16.368806 16.238846-0.51063 62.314231-21.463848 120.609938-58.998719 164.149571-36.871769 42.769083-85.446068 66.099441-136.616494 65.664535-61.790298-0.511653-123.756605-36.467563-154.197918-89.471754-4.502547-7.841595-14.509459-10.54824-22.353101-6.043646-7.840572 4.503571-10.547217 14.510482-6.043646 22.352077 36.033681 62.741973 109.302405 105.303324 182.322465 105.908098 61.035098 0.50449 118.43132-26.850531 161.690566-77.027327 42.594097-49.40727 66.367547-115.201765 66.940598-185.263447 0.074701-9.041934-7.195889-16.432251-16.237823-16.505929C946.370968 372.689532 946.323896 372.689532 946.278871 372.689532zM321.371358-152.204126c-1.332345 0-2.685155 0.289596-3.967358 0.903579-4.588505 2.194992-6.528694 7.694239-4.334725 12.281721 32.91976 68.833715 23.378453 113.539916 14.960737 152.983253-6.184863 28.981055-12.026918 56.354496-1.410116 88.493473 1.595334 4.830005 6.803963 7.450692 11.633968 5.856381 4.830005-1.596358 7.451716-6.803963 5.856381-11.633968-9.051143-27.396977-3.960195-51.250244 1.934049-78.869279 9.031701-42.318828 19.268856-90.285283-16.35755-164.774811C328.104713-150.273147 324.806597-152.204126 321.371358-152.204126zM728.914308-93.665895c-0.744967 0-1.502213 0.116657-2.24718 0.363274-3.756557 1.240247-5.796006 5.291516-4.554736 9.048073 14.236236 43.109844 9.441023 70.667479 4.802376 97.317443-3.879354 22.294772-7.890714 45.347814-0.127913 75.556836 0.984421 3.831258 4.886287 6.14086 8.719592 5.154393 3.831258-0.984421 6.139837-4.888334 5.154393-8.719592-6.995321-27.224038-3.418866-47.77612 0.367367-69.534679 4.710278-27.066449 10.047844-57.745169-5.314029-104.266715C734.721571-91.758452 731.921805-93.665895 728.914308-93.665895zM155.425885 498.677968c-0.013303 0-0.026606 0-0.039909 0-4.520967 0.021489-8.169053 3.704368-8.147564 8.225335 0.12689 26.460652 11.968589 58.550511 31.677467 85.842087 22.309098 30.891568 52.228525 52.552913 84.245729 60.995189 4.371564 1.153266 8.849552-1.457188 10.002818-5.828752 1.152243-4.371564-1.457188-8.850575-5.828752-10.002818-63.956637-16.863063-103.517655-87.712691-103.724363-131.083477C163.589822 502.316845 159.928433 498.677968 155.425885 498.677968zM783.140327 194.635277c37.152155 10.30367 67.941392 36.516682 81.678254 73.033363M301.165154 95.47486c-3.588735 0-6.855128 2.085498-8.361435 5.350868-1.52268 3.298116-0.963954 7.18361 1.426489 9.918907l34.927487 39.977503c1.723248 1.972934 4.204765 3.119037 6.824429 3.149736 0.036839 0.001023 0.074701 0.001023 0.11154 0.001023 2.578732 0 5.04183-1.081635 6.786567-2.983961l35.880185-39.118949c2.454912-2.675946 3.107781-6.54609 1.665942-9.880021-1.441838-3.334955-4.709255-5.509481-8.340969-5.553483l-70.806649-0.861624C301.239855 95.47486 301.203016 95.47486 301.165154 95.47486zM336.260463 130.856695l-14.600533-16.712637 29.599132 0.361227L336.260463 130.856695zM755.821121 88.711829c-0.01842 0-0.036839 0-0.055259 0l-44.194548 0.341784c-2.846838 0.021489-5.411243 1.727341-6.53074 4.345981-1.12052 2.617617-0.583285 5.649674 1.367137 7.723915l22.278399 23.693632c1.366114 1.453095 3.255137 2.307555 5.273097 2.25639 1.995447-0.016373 3.89368-0.862647 5.238304-2.336208l21.915126-24.036439c1.917676-2.103918 2.408863-5.143137 1.248434-7.743358C761.210875 90.373679 758.64647 88.711829 755.821121 88.711829zM728.075197 103.25301l11.405771-0.088004-5.655813 6.203282L728.075197 103.25301z"  horiz-adv-x="1024" />

    
    <glyph glyph-name="shanchu" unicode="&#58951;" d="M885.960599 582.667871 139.025868 582.667871c-13.322423 0-24.092721 10.770298-24.092721 24.092721 0 13.302981 10.770298 24.097838 24.092721 24.097838l746.93473 0c13.323447 0 24.092721-10.794857 24.092721-24.097838C910.05332 593.438169 899.284045 582.667871 885.960599 582.667871L885.960599 582.667871zM645.010875 679.043872l-265.036305 0c-13.323447 0-24.097838 10.770298-24.097838 24.097838 0 13.297864 10.774391 24.093744 24.097838 24.093744l265.036305 0c13.328563 0 24.098861-10.796904 24.098861-24.093744C669.109736 689.813147 658.340461 679.043872 645.010875 679.043872L645.010875 679.043872zM404.06729 52.590144 404.06729 462.194032c0 13.301957 10.769274 24.097838 24.092721 24.097838 13.328563 0 24.097838-10.79588 24.097838-24.097838l0-409.603889c0-13.32754-10.769274-24.097838-24.097838-24.097838C414.837588 28.492306 404.06729 39.261581 404.06729 52.590144L404.06729 52.590144zM572.728618 52.590144 572.728618 462.194032c0 13.301957 10.773368 24.097838 24.097838 24.097838 13.323447 0 24.092721-10.79588 24.092721-24.097838l0-409.603889c0-13.32754-10.769274-24.097838-24.092721-24.097838C583.501986 28.492306 572.728618 39.261581 572.728618 52.590144L572.728618 52.590144zM235.406986 510.384591c13.32447 0 24.093744-10.796904 24.093744-24.092721l0-28.528754 0-91.946109 0-385.510144c0-26.600845 21.590737-48.192605 48.190559-48.192605l409.603889 0c26.599821 0 48.190559 21.591761 48.190559 48.192605l0 385.510144 0 91.946109 0 28.528754c0 13.296841 10.769274 24.092721 24.093744 24.092721 13.32754 0 24.097838-10.796904 24.097838-24.092721l0-96.383164 0-24.091698 0-409.609005c0-39.924291-32.361035-72.285327-72.284303-72.285327L283.593452-116.077324c-39.923268 0-72.284303 32.361035-72.284303 72.285327L211.309148 321.601994l0 44.215014 0 24.091698 0 96.383164C211.309148 499.587688 222.083539 510.384591 235.406986 510.384591L235.406986 510.384591zM235.406986 510.384591"  horiz-adv-x="1024" />

    
    <glyph glyph-name="tupianmoshi" unicode="&#58959;" d="M351.567589 718.196591 141.836891 718.196591c-31.546483 0-57.217143-25.672706-57.217143-57.187467l0-209.747071c0-31.54546 25.670659-57.18542 57.217143-57.18542l209.731722 0c31.531134 0 57.201793 25.63996 57.201793 57.18542L408.770406 661.010147C408.771429 692.523885 383.098723 718.196591 351.567589 718.196591M354.213859 661.010147l0-209.747071c0-1.449002-1.197268-2.676969-2.645247-2.676969L141.836891 448.586107c-1.449002 0-2.708692 1.227967-2.708692 2.677992L139.128199 661.010147c0 1.497097 1.227967 2.677992 2.708692 2.677992l209.731722 0C353.049337 663.688139 354.213859 662.506221 354.213859 661.010147M351.567589 268.870002 141.836891 268.870002c-31.546483 0-57.217143-25.704428-57.217143-57.198723l0-209.751165c0-31.56081 25.670659-57.198723 57.217143-57.198723l209.731722 0c31.531134 0 57.201793 25.63996 57.201793 57.198723L408.770406 211.671279C408.771429 243.165574 383.098723 268.870002 351.567589 268.870002M354.213859 211.671279l0-209.751165c0-1.478677-1.197268-2.674922-2.645247-2.674922L141.836891-0.754808c-1.449002 0-2.708692 1.196245-2.708692 2.674922L139.128199 211.671279c0 1.477654 1.227967 2.677992 2.708692 2.677992l209.731722 0C353.049337 214.350295 354.213859 213.149956 354.213859 211.671279M911.295614 718.196591 571.604004 718.196591c-31.546483 0-57.217143-25.672706-57.217143-57.187467l0-369.383862c0-31.544437 25.670659-57.18542 57.217143-57.18542L911.295614 234.439842c31.531134 0 57.202816 25.640983 57.202816 57.18542L968.49843 661.010147C968.49843 692.523885 942.824701 718.196591 911.295614 718.196591M913.94086 661.010147l0-369.382838c0-1.449002-1.196245-2.677992-2.645247-2.677992L571.604004 288.949316c-1.449002 0-2.707668 1.228991-2.707668 2.677992l0 369.382838c0 1.497097 1.226944 2.677992 2.707668 2.677992L911.295614 663.688139C912.776338 663.688139 913.94086 662.506221 913.94086 661.010147M911.295614 149.143177 571.604004 149.143177c-31.546483 0-57.217143-25.704428-57.217143-57.198723l0-90.024339c0-31.56081 25.670659-57.198723 57.217143-57.198723L911.295614-55.278609c31.531134 0 57.202816 25.63996 57.202816 57.198723l0 90.024339C968.49843 123.438749 942.824701 149.143177 911.295614 149.143177M913.94086 91.944454l0-90.024339c0-1.478677-1.196245-2.674922-2.645247-2.674922L571.604004-0.754808c-1.449002 0-2.707668 1.196245-2.707668 2.674922l0 90.024339c0 1.477654 1.226944 2.677992 2.707668 2.677992L911.295614 94.622446C912.776338 94.623469 913.94086 93.423131 913.94086 91.944454"  horiz-adv-x="1024" />

    
    <glyph glyph-name="iconfonticonfangkuai1" unicode="&#58911;" d="M511.958 468.943l181.031-181.031-181.031-181.031-181.031 181.031 181.031 181.031z"  horiz-adv-x="1024" />

    
    <glyph glyph-name="gou2" unicode="&#58912;" d="M511.974401 812c-282.75527 0-511.974401-229.219131-511.974401-511.974401 0-282.757318 229.219131-511.974401 511.974401-511.974401 282.757318 0 511.974401 229.217083 511.974401 511.974401C1023.948803 582.780869 794.729672 812 511.974401 812zM805.63063 432.825615 474.510162 101.703099c0 0-0.004096-0.004096-0.010239-0.010239-15.265029-15.269125-38.541433-17.652877-56.31104-7.157402-3.290971 1.945503-6.393536 4.333351-9.219635 7.157402-0.002048 0.004096-0.006144 0.006144-0.006144 0.006144l-190.642884 190.642884c-18.095223 18.095223-18.095223 47.4375 0 65.536819 18.095223 18.095223 47.4375 18.095223 65.532723 0l157.884714-157.884714 298.362298 298.362298c18.097271 18.095223 47.439548 18.095223 65.534771 0C823.725854 480.261067 823.725854 450.920838 805.63063 432.825615z"  horiz-adv-x="1025" />

    
    <glyph glyph-name="cgbiaoqingtubiao" unicode="&#58899;" d="M512-202.016c-276.8 0-502.016 225.216-502.016 502.016S235.2 802.016 512 802.016 1014.016 576.8 1014.016 300 788.8-202.016 512-202.016zM512 738.016c-241.472 0-438.016-196.48-438.016-438.016S270.528-138.016 512-138.016s438.016 196.48 438.016 438.016S753.472 738.016 512 738.016zM680 326.496c-40.512 0-73.472 32.96-73.472 73.472s33.024 73.472 73.472 73.472 73.472-32.96 73.472-73.472S720.512 326.496 680 326.496zM680 441.504c-22.848 0-41.472-18.624-41.472-41.472s18.624-41.472 41.472-41.472 41.472 18.624 41.472 41.472S702.848 441.504 680 441.504zM289.984 308.512c-5.44 0-10.752 2.816-13.76 7.872-4.48 7.616-1.984 17.408 5.632 21.952l92.8 54.912L280.704 460c-7.168 5.12-8.896 15.104-3.776 22.336 5.12 7.168 15.168 8.768 22.336 3.776l113.984-81.024c4.416-3.136 6.912-8.256 6.72-13.696C419.776 385.952 416.832 381.024 412.16 378.208L298.176 310.688C295.616 309.216 292.8 308.512 289.984 308.512zM512.832 34.976c-2.752 0-5.504 0.064-8.256 0.192-112.64 5.312-184.832 119.616-187.84 124.48C307.456 174.688 312.064 194.4 327.04 203.68c14.912 9.216 34.688 4.736 44.032-10.176 0.576-0.96 57.792-90.88 136.768-94.4 49.728-2.368 100.16 30.336 150.656 96.832 10.752 14.08 30.72 16.704 44.864 6.144 14.08-10.688 16.832-30.72 6.144-44.864C647.936 76.064 581.824 34.976 512.832 34.976z"  horiz-adv-x="1024" />

    
    <glyph glyph-name="zuojiantou" unicode="&#58891;" d="M488.541729-49.438601 554.037419 16.046856 287.645233 282.308059 913.666102 282.308059 913.666102 374.933643 287.645233 374.933643 554.037419 641.210195 488.541729 706.685419 110.332874 328.620851Z"  horiz-adv-x="1024" />

    
    <glyph glyph-name="tishi" unicode="&#58918;" d="M511.603469 747.979918c-247.318782 0-447.755814-200.467731-447.755814-447.750697 0-247.287059 200.437032-447.76093 447.755814-447.76093 247.25022 0 447.756837 200.473871 447.756837 447.76093C959.361329 547.512187 758.853689 747.979918 511.603469 747.979918zM510.262938-18.977845c-35.762505 0-64.689325 28.92989-64.689325 64.688301 0 35.726689 28.925796 64.688301 64.689325 64.688301 35.755342 0 64.686255-28.961612 64.686255-64.688301C574.948169 9.952045 546.01828-18.977845 510.262938-18.977845zM594.976318 461.89625c0-0.115634-0.032746-0.232291-0.064468-0.468674l-0.058328-0.204661-0.089028-0.463558-0.025583-0.173962-0.058328-0.347924-0.064468-0.289596c0 0-54.626131-254.250658-54.652737-254.721379 0 0 3.761674 19.154245 0-0.030699-3.759627-19.184945-13.322423-29.703509-29.702486-29.703509-16.409738 0-25.02393 12.156878-30.084179 31.864732-5.061272 19.704784-53.198619 246.960625-53.230342 247.166309 0 0-0.026606 0.089028-0.058328 0.204661l-0.031722 0.200568c-0.032746 0.148379-0.084934 0.294712-0.084934 0.442068l-0.057305 0.347924-0.058328 0.321318c-0.026606 0.084934-0.056282 0.321318-0.056282 0.321318l-0.058328 0.347924-0.058328 0.148379-0.089028 0.49528c0 0-0.031722 0.200568-0.058328 0.289596l-0.056282 0.321318c0 0-0.032746 0.232291-0.089028 0.462534 0 0 0 0.089028-0.026606 0.179079l-0.031722 0.231267c0 0-0.084934 0.289596-0.116657 0.437975l-0.057305 0.347924-0.058328 0.326435-0.058328 0.289596-0.057305 0.348947-0.032746 0.172939-0.089028 0.463558-0.058328 0.326435c0 0-0.051165 0.232291-0.051165 0.347924-1.163499 5.65786-1.807159 11.541871-1.807159 17.546631 0 47.809889 38.675858 86.522586 86.517469 86.522586 47.835472 0 86.520539-38.712697 86.520539-86.522586C596.783477 473.437098 596.140841 467.553087 594.976318 461.89625z"  horiz-adv-x="1024" />

    
    <glyph glyph-name="haoyou1" unicode="&#59315;" d="M958.794417 64.017404c0-34.434254-24.849968-62.294788-65.958224-61.544705-20.6319 0.101307-19.025309-0.400113-37.901215 0-32.92283 0.701988-30.769794 20.727067-41.508369 61.544705-26.402323 100.587929-138.044006 232.249575-163.489538 247.461021-67.165726 40.108486 18.067494 13.456477 18.067494 142.511761 0 33.125445-7.525394 74.739215-21.078061 102.748129-10.543124 21.935592-19.276019 42.167379 21.078061 40.911782 80.266092-2.563382 145.368832-64.357773 145.368832-143.659911 0-49.752124-25.552979-93.568049-64.452941-119.369691 7.584746-1.760087 15.312754-3.563152 23.898293-5.823636C879.534236 297.778402 958.794417 170.578372 958.794417 64.017404L958.794417 64.017404 958.794417 64.017404 958.794417 64.017404zM746.011196-6.413692c-0.249687-32.923854-14.456247-65.751516-70.371744-65.704444-125.896338 0.149403-478.973816-0.451278-539.910677 0-68.316945 0.506537-70.524217 34.131355-70.524217 65.704444 0 152.148235 103.804181 288.426015 243.097644 327.679018-61.287855 32.731472-92.009554 93.717452-92.009554 164.29795 0 102.94972 84.882226 186.726775 189.290157 186.726775 104.306624 0 189.18885-83.776032 189.18885-186.726775 0-70.580498-33.683147-131.565455-94.972025-164.29795C639.247614 282.013347 747.515457 144.330568 746.011196-6.413692L746.011196-6.413692 746.011196-6.413692 746.011196-6.413692zM746.011196-6.413692"  horiz-adv-x="1024" />

    
    <glyph glyph-name="qq3" unicode="&#59569;" d="M512 812C229.227789 812 0 582.772211 0 300c0-282.745263 229.227789-512 512-512s512 229.254737 512 512C1024 582.772211 794.772211 812 512 812L512 812zM738.856421 174.937263c0 0-16.208842-44.220632-45.945263-83.941053 0 0 53.126737-18.054737 48.64-64.983579 0 0 1.778526-52.345263-113.461895-48.734316 0 0-81.071158 6.319158-105.377684 40.609684l-21.423158 0c-24.306526-34.304-105.350737-40.609684-105.350737-40.609684-115.280842-3.610947-113.475368 48.734316-113.475368 48.734316-4.500211 46.928842 48.626526 64.983579 48.626526 64.983579-29.709474 39.720421-45.918316 83.941053-45.918316 83.941053-72.057263-116.439579-64.848842 16.249263-64.848842 16.249263 13.527579 78.524632 70.238316 129.967158 70.238316 129.967158-8.111158 71.316211 21.611789 83.941053 21.611789 83.941053C318.410105 625.712842 508.025263 621.859368 512 621.751579c3.988211 0.107789 193.576421 3.961263 199.828211-216.643368 0 0 29.709474-12.638316 21.611789-83.941053 0 0 56.737684-51.442526 70.238316-129.967158l0 0C803.678316 191.186526 810.873263 58.497684 738.856421 174.937263L738.856421 174.937263zM738.856421 174.937263"  horiz-adv-x="1024" />

    
    <glyph glyph-name="zan" unicode="&#58908;" d="M585.53376 729.959495c20.62269 0 38.421055-15.374152 43.286875-37.388539l2.934842-12.681834c3.261277-18.86465 4.909823-37.941124 4.909823-56.882522 0-46.755884-4.456498-82.788541-13.624299-110.156866l-23.980157-71.593572 75.502601-0.316202c72.873728-0.305969 183.704952-0.827855 194.388269-1.033539 19.0908-0.815575 26.612101-7.329942 33.117258-18.248619 6.639211-11.177574 7.770987-22.344914 7.42818-30.191626-4.949732-30.719652-66.088184-306.390155-76.351945-347.913874-3.784186-6.553253-8.890484-12.072967-14.846126-16.044418-10.276041-6.80294-10.949376-6.80294-15.619746-6.80294l-442.309778-0.024559 0.61603 401.249617C467.903689 455.369603 545.68417 554.3008 548.762275 669.029798l0.079818 2.998287-0.162706 1.986237 0.026606 1.173732 0.076748 4.691859C548.782741 703.999241 560.284703 729.959495 585.53376 729.959495M218.822774 409.430318l0-388.963803-73.337285 0L145.485489 409.430318 218.822774 409.430318M585.53376 784.535485c-54.796 0-91.328032-47.491641-91.328032-104.655572 0-3.218298-0.25685-6.302543 0-9.386788-2.868327-106.894565-87.291089-192.82875-187.729615-204.614168l-0.766456-499.777631 9.803273 0c-0.013303 0.016373 0.103354 0.026606 0.456395 0.026606 0.366344 0 0.479931-0.010233 0.466628-0.026606l486.247476 0.026606c0.103354 0 0.203638 0 0.305969 0 18.35402 0 28.720112 4.806469 45.435819 15.872502 15.935947 10.626012 27.987425 25.155936 35.839253 41.582047 2.175549 3.298116 77.660754 342.438163 79.589686 362.560456 1.509377 21.461801-3.14769 43.663452-14.863523 63.386656-18.470677 31.009248-45.308929 43.533492-77.774341 44.905746-1.685385 0.26299-196.423625 1.079588-196.423625 1.079588 12.894681 38.496779 16.448624 84.379783 16.448624 127.490649 0 27.974122-3.044336 55.18588-8.647961 81.397868l-0.483001-0.053212C671.959132 750.282357 632.611985 784.535485 585.53376 784.535485L585.53376 784.535485zM235.024781 464.006308 129.283482 464.006308c-21.209044 0-38.373982-17.717524-38.373982-39.552831l0-419.013189c0-21.832238 17.164938-39.549761 38.373982-39.549761l105.741299 0c21.209044 0 38.373982 17.717524 38.373982 39.549761L273.398764 424.452453C273.398764 446.287761 256.233825 464.006308 235.024781 464.006308L235.024781 464.006308zM316.440046-33.899696l-0.923022 0c0.010233-0.013303 0.090051-0.029676 0.196475-0.053212-0.076748-0.029676-0.073678-0.042979 0-0.042979 0.053212 0 0.143263 0.007163 0.25992 0.016373 0.12689-0.010233 0.223081-0.016373 0.276293-0.016373 0.082888 0 0.090051 0.013303 0 0.042979C316.353065-33.929372 316.429813-33.912999 316.440046-33.899696L316.440046-33.899696z"  horiz-adv-x="1024" />

    
    <glyph glyph-name="weixinzhifu" unicode="&#58961;" d="M390.21952 264.90752c-61.26464-34.01984-70.35136 19.09888-70.35136 19.09888l-76.78208 178.46656c-29.54368 84.80512 25.56928 38.23744 25.56928 38.23744s47.2896-35.63392 83.17952-57.34784c35.87072-21.71392 76.75776-6.3744 76.75776-6.3744l501.9648 230.7776C837.94688 782.5472 684.96256 857.6 511.76576 857.6 229.11104 857.6 0 657.86752 0 411.47136c0-141.72544 75.8656-267.8656 194.0352-349.62176l-21.31072-122.01856c0 0-10.38848-35.6224 25.61536-19.10016 24.53376 11.26528 87.0784 51.63392 124.30976 76.20224 58.53056-20.31616 122.2976-31.5968 189.14432-31.5968 282.63168 0 511.79008 199.73248 511.79008 446.13376 0 71.36896-19.31008 138.76864-53.51552 198.59456C810.14144 514.2208 438.15808 291.48288 390.21952 264.90752L390.21952 264.90752 390.21952 264.90752zM390.21952 264.90752"  horiz-adv-x="1024" />

    
    <glyph glyph-name="iconfontdingyou" unicode="&#58979;" d="M511.746 805.431C232.272 805.431 5.711 578.863 5.711 299.39s226.562-506.072 506.035-506.072c279.487 0 506.042 226.599 506.042 506.072C1017.788 578.863 791.233 805.431 511.746 805.431zM778.984 144.616c0-24.324-20.041-44.222-44.538-44.222L289.043 100.394c-24.497 0-44.522 19.897-44.522 44.222L244.521 386.222l267.225-153.163 267.238 153.163L778.984 144.616zM778.984 411.754 511.746 258.59 244.521 411.754l0 42.41c0 24.31 20.026 44.221 44.522 44.221l445.403 0c24.497 0 44.538-19.911 44.538-44.221L778.984 411.754z"  horiz-adv-x="1024" />

    
    <glyph glyph-name="biaoqingwunai4" unicode="&#58889;" d="M145.8701 456.181544c-9.759045 0.478746-18.892038-7.033878-19.591743-17.161188C125.615479 428.856218 133.275408 420.128318 143.439545 419.428613c1.767676-0.11048 11.342588-0.699705 26.220528-0.699705 61.13213 0 211.900165 9.832698 279.845213 101.788679C455.544846 528.693088 453.813997 540.219809 445.638495 546.259368 437.426167 552.298928 425.936273 550.568079 419.896713 542.392577 347.385169 444.24973 147.932389 455.960584 145.8701 456.181544zM1034.311444 419.428613c10.127311 0.699705 17.824067 9.427606 17.161188 19.591743-0.699705 10.127311-9.611738 17.345321-19.591743 17.161188-2.062289-0.147306-201.367762-12.152773-274.026613 86.211034-6.076386 8.175502-17.639934 9.869525-25.741782 3.866791-8.212328-6.076386-9.943178-17.603107-3.866791-25.778609 67.981874-91.992807 218.713084-101.788679 279.88204-101.788679C1022.932029 418.728907 1032.543768 419.318133 1034.311444 419.428613zM876.288571 622.416745 876.288571 755.471193 952.335467 622.416745 971.558944 622.416745 990.745594 622.416745 990.745594 806.954758 972.700568 806.954758 954.729195 806.954758 954.729195 677.398835 880.707761 806.954758 860.489966 806.954758 840.272171 806.954758 840.272171 622.416745 858.317198 622.416745ZM1172.926706 785.411206c-15.945911 17.67676-37.563116 26.588794-64.814788 26.588794-27.104366 0-48.684744-8.875207-64.667482-26.588794s-23.93728-41.61404-23.93728-71.738186c0-29.534921 7.991369-52.956628 23.93728-70.265123 15.982738-17.345321 37.563116-25.999568 64.667482-25.999568 27.251672 0 48.868877 8.654247 64.814788 25.999568 15.982738 17.308495 23.900453 40.730202 23.900453 70.265123C1196.863986 743.797166 1188.909444 767.697619 1172.926706 785.411206zM1145.048982 667.050565C1136.136949 655.78163 1123.83687 650.147162 1108.148745 650.147162c-15.761778 0-28.025031 5.634467-36.863411 16.903402-8.801554 11.268935-13.220744 26.84658-13.220744 46.843415 0 20.438754 4.41919 36.421492 13.25757 47.948213 8.912033 11.563547 21.138459 17.345321 36.826584 17.345321 15.724951 0 28.025031-5.744947 36.900237-17.345321 8.83838-11.526721 13.294397-27.509458 13.294397-47.948213C1158.343379 693.897145 1153.887362 678.282673 1145.048982 667.050565zM1150.609796 575.757462c-10.164137 0-18.413292-8.249155-18.413292-18.413292l0-529.345321c0-20.144142-15.909084-36.568798-35.758613-37.636769-1.39941 3.829965-3.314393 7.54945-5.560814 11.195282-0.294613 0.478746-0.699705 0.920665-0.957491 1.39941-1.50989 2.283248-2.946127 4.52967-4.787456 6.702438-0.699705 0.773358-1.583543 1.50989-2.320075 2.320075-0.478746 0.552399-0.994318 0.994318-1.50989 1.50989-2.430555 2.430555-5.118895 4.787456-8.028195 6.997051-1.178451 0.920665-2.393728 1.841329-3.682658 2.725167-2.320075 1.583543-4.750629 3.056606-7.254837 4.492843-1.436237 0.773358-2.614687 1.767676-4.087751 2.504208-0.441919 0.22096-0.994318 0.368266-1.436237 0.589225-5.229375 2.577861-10.900669 4.861109-16.903402 6.886571-2.283248 0.773358-4.566496 1.436237-6.923398 2.135942-6.260519 1.767676-12.778825 3.314393-19.739049 4.41919-1.657196 0.257786-3.424872 0.368266-5.118895 0.589225-6.776091 0.847011-13.773142 1.362584-21.02798 1.546717-1.583543 0.036827-3.093433 0.147306-4.676976 0.147306-8.985687 0.036827-18.376466-0.552399-28.025031-1.694023-0.626052-0.073653-1.215277-0.184133-1.878156-0.257786-41.061641-5.155722-87.352658-21.322592-134.380206-53.067108-0.626052-0.405092-1.252104-0.699705-1.878156-1.104798L409.990362-9.601093c-1.178451 0.810185-2.356901 1.362584-3.535352 2.172768-9.648565 6.444652-19.260304 12.226426-28.835215 17.418974-1.583543 0.847011-3.13026 1.804503-4.713803 2.614687-10.532403 5.487161-20.954326 10.200964-31.26577 14.288715-1.730849 0.699705-3.424872 1.28893-5.155722 1.951809-20.9175 7.807236-41.098468 12.852478-60.211465 15.467165-1.951809 0.257786-3.903618 0.552399-5.8186 0.773358-8.83838 0.994318-17.455801 1.546717-25.704956 1.546717-2.283248 0-4.382364-0.11048-6.628785-0.184133-6.591959-0.184133-12.962958-0.662879-19.112997-1.39941-2.062289-0.257786-4.161404-0.405092-6.15004-0.736532-6.960224-1.067971-13.441703-2.614687-19.702223-4.41919-2.320075-0.662879-4.566496-1.28893-6.776091-2.062289-6.15004-2.062289-11.931813-4.345537-17.234841-6.997051-0.405092-0.184133-0.883838-0.294613-1.252104-0.515572-1.325757-0.699705-2.356901-1.50989-3.609005-2.246422-2.79882-1.583543-5.487161-3.167086-7.991369-4.934762-1.141624-0.773358-2.209595-1.583543-3.277566-2.393728-3.056606-2.320075-5.855427-4.787456-8.396461-7.32849-0.405092-0.441919-0.847011-0.810185-1.28893-1.252104-0.773358-0.810185-1.694023-1.583543-2.393728-2.393728-1.951809-2.283248-3.424872-4.64015-4.971589-6.997051-0.22096-0.331439-0.515572-0.662879-0.736532-0.957491-2.320075-3.682658-4.235057-7.43897-5.634467-11.342588l-55.018917 0c-20.80702 0-37.710422 16.903402-37.710422 37.673596L36.863411 729.839891c0 20.80702 16.903402 37.710422 37.710422 37.710422l679.560958 0c10.164137 0 18.413292 8.249155 18.413292 18.413292s-8.249155 18.413292-18.413292 18.413292L74.537006 804.376897c-41.098468 0-74.537006-33.438538-74.537006-74.537006l0-701.841042c0-41.098468 33.438538-74.50018 74.537006-74.50018l55.018917 0c3.461699-10.274617 9.574912-20.475581 18.707905-29.97684 2.356901-2.430555 5.376681-4.198231 8.654247-5.082069 92.140114-23.863627 115.009422-53.398547 120.42293-68.865712 5.92908-16.940229-3.866791-30.602891-4.52967-31.449903-6.15004-7.991369-4.787456-19.444436 3.13026-25.704956 7.991369-6.334172 19.51809-5.008415 25.852262 2.982953 8.506941 10.716536 20.291448 36.531972 10.606056 65.367187-13.183917 39.367618-60.579731 70.265123-140.861685 91.882328-6.444652 7.770409-8.396461 14.141408-8.359635 19.223477 0.036827 5.008415 2.541034 10.016831 6.886571 14.693807 2.541034 2.725167 5.8186 5.303028 9.574912 7.696756 1.104798 0.736532 2.135942 1.39941 3.314393 2.099115 3.351219 1.878156 7.43897 3.424872 11.526721 4.971589 2.135942 0.773358 4.050924 1.767676 6.334172 2.467381 13.58901 4.050924 30.234626 6.260519 49.16349 5.634467 2.283248-0.11048 4.750629-0.478746 7.070704-0.662879 6.886571-0.441919 13.957275-1.215277 21.322592-2.467381 4.271884-0.773358 8.654247-1.804503 13.036611-2.79882 5.781774-1.325757 11.674027-2.946127 17.713587-4.787456 5.192548-1.62037 10.45875-3.388046 15.761778-5.413508 5.92908-2.246422 11.96864-4.971589 18.045026-7.733583 5.229375-2.430555 10.45875-4.750629 15.761778-7.54945 9.206646-4.934762 18.523772-10.642883 27.914551-16.903402 2.283248-1.546717 4.566496-2.651514 6.849745-4.271884 0 0 0.036827 0 0.036827 0 133.459541-94.018269 119.060347-141.45091 119.207653-141.45091-4.750629-8.985687-1.28893-20.144142 7.696756-24.894771 2.725167-1.436237 5.671294-2.135942 8.580594-2.135942 6.628785 0 12.999784 3.572179 16.314177 9.832698 5.560814 10.56923 24.121413 63.525858-86.763432 155.260879l308.901388 0c-110.921672-91.735021-92.361073-144.728476-86.763432-155.260879 3.388046-6.407826 10.090484-10.200964 16.903402-10.200964 2.79882 0 5.597641 0.662879 8.249155 2.025462 8.985687 4.750629 12.668345 15.356686 7.917716 24.342372-0.147306 0.515572-15.614472 48.132346 119.612745 143.108106 11.784507 8.285981 23.458534 15.0989 34.948428 21.175286 4.235057 2.283248 8.433288 4.050924 12.668345 6.03956 7.144357 3.388046 14.251888 6.518305 21.212112 9.132993 4.676976 1.767676 9.317126 3.314393 13.920449 4.750629 6.518305 2.025462 12.889304 3.756312 19.112997 5.155722 4.161404 0.920665 8.359635 1.951809 12.410559 2.614687 7.070704 1.215277 13.883622 1.951809 20.512407 2.393728 2.725167 0.22096 5.560814 0.626052 8.249155 0.736532 18.707905 0.589225 35.169388-1.583543 48.611091-5.597641 2.688341-0.773358 4.971589-1.951809 7.43897-2.9093 3.719485-1.436237 7.475797-2.79882 10.56923-4.52967 1.215277-0.699705 2.320075-1.39941 3.461699-2.172768 3.719485-2.356901 6.923398-4.897936 9.464432-7.586276 4.30871-4.713803 6.849745-9.685392 6.923398-14.656981 0.073653-5.155722-1.841329-11.526721-8.359635-19.333957-80.281954-21.617205-127.604114-52.514709-140.824858-91.845501-9.685392-28.872042 2.135942-54.687478 10.606056-65.404014 6.297346-7.954542 17.639934-9.206646 25.557649-3.056606 7.991369 6.15004 9.464432 17.67676 3.424872 25.741782-0.441919 0.589225-10.495576 14.325541-4.492843 31.449903 5.376681 15.467165 28.282817 45.002086 120.386104 68.865712 3.277566 0.847011 6.260519 2.614687 8.617421 5.082069 9.206646 9.611738 15.356686 19.849529 18.818385 30.197799 40.140977 1.141624 72.474718 33.917284 72.474718 74.316047L1169.059915 557.34417C1169.023089 567.545134 1160.773934 575.757462 1150.609796 575.757462zM423.689851 568.576279c8.764727 0 17.566281 0.736532 25.962742 2.246422 9.980004 1.841329 16.645616 11.416241 14.841113 21.433072C462.652377 602.272603 453.077465 609.048695 443.060634 607.060059c-23.311228-4.198231-48.647918 0.073653-59.659066 6.628785C374.673668 618.918219 363.33108 616.045746 358.175358 607.317845 352.945983 598.589945 355.818456 587.284183 364.546357 582.091635 379.056031 573.400561 401.225635 568.576279 423.689851 568.576279zM730.74991 599.215997c-10.016831 2.393728-19.849529-3.756312-22.169604-13.662663-2.320075-9.906351 3.793138-19.812702 13.662663-22.169604 5.560814-1.325757 11.821334-1.951809 18.523772-1.951809 20.770193 0 45.591311 6.076386 65.993239 16.756096 8.985687 4.713803 12.484212 15.835431 7.770409 24.857944-4.750629 9.022513-15.872258 12.484212-24.894771 7.770409C768.681292 599.842048 743.123642 596.306696 730.74991 599.215997zM584.511544 166.393153c141.929655 0 245.154571 80.797526 249.463281 84.222398 7.954542 6.334172 9.243473 17.89772 2.946127 25.852262-6.334172 7.991369-17.89772 9.317126-25.852262 2.982953-0.957491-0.773358-97.848234-76.231029-226.557146-76.231029-126.720276 0-196.285694 73.542689-196.985399 74.27922C380.565921 284.974754 368.965547 285.416673 361.526577 278.566928 354.05078 271.680357 353.535208 260.116809 360.384953 252.604186 363.588866 249.105661 440.887866 166.393153 584.511544 166.393153z"  horiz-adv-x="1197" />

    
    <glyph glyph-name="see-num" unicode="&#58935;" d="M375.545 246.621c0 17.858 3.553 35.719 10.385 52.219 6.835 16.502 16.948 31.641 29.58 44.272 12.631 12.625 27.764 22.742 44.272 29.58 16.502 6.835 34.355 10.385 52.219 10.385 17.861 0 35.711-3.553 52.219-10.385 16.502-6.838 31.641-16.954 44.266-29.58 12.631-12.632 22.748-27.77 29.58-44.272 6.838-16.502 10.385-34.36 10.385-52.219 0-17.864-3.547-35.717-10.385-52.219-6.835-16.502-16.948-31.641-29.58-44.272-12.628-12.632-27.764-22.742-44.266-29.58-16.508-6.835-34.359-10.388-52.219-10.388-17.864 0-35.719 3.553-52.219 10.388-16.508 6.841-31.642 16.948-44.272 29.58-12.632 12.632-22.748 27.77-29.58 44.272-6.832 16.502-10.385 34.356-10.385 52.219v0zM501.753 579.392c-322.374 0-496.81-332.5-496.81-332.5s226.431-333.039 510.674-333.039c284.237 0 503.441 335.936 503.441 335.936s-194.935 329.603-517.305 329.603v0zM512.001 3.47c-134.289 0-243.154 108.861-243.154 243.154 0 134.289 108.861 243.151 243.154 243.151 134.283 0 243.145-108.861 243.145-243.151 0.003-134.293-108.86-243.154-243.145-243.154v0z"  horiz-adv-x="1024" />

    
    <glyph glyph-name="wode" unicode="&#58999;" d="M966.94454-167.324498l-59.863413 0c0 108.512413-47.90915 212.32478-131.443681 284.819884-10.43363 9.054213-21.469987 17.653055-32.79901 25.558096-24.836665 17.337877-56.143695 4.040013-105.168248-19.0908-37.439704-17.665335-79.874165-37.687344-125.671211-37.687344-45.843094 0-88.352257 19.87363-125.857453 37.406958-49.345871 23.070438-80.860632 36.31509-105.880469 18.7439-10.42135-7.312546-20.582781-15.210423-30.212092-23.478737-84.610026-72.590272-133.13009-176.928618-133.13009-286.270932l-59.863413 0c0 64.61053 14.014178 126.896108 41.655725 185.127348 26.663266 56.17337 64.463174 105.485473 112.349811 146.56917 11.090593 9.523911 22.804379 18.626219 34.803667 27.048029 25.331945 17.791202 54.044894 23.050995 87.768973 16.078187 26.136264-5.405103 52.43114-17.698081 77.861322-29.586852 33.412994-15.620769 67.963904-31.773657 100.505042-31.773657 32.383548 0 66.821895 16.249079 100.125395 31.962969 25.289989 11.932774 51.440579 24.2718 77.452 29.754674 33.603329 7.081279 62.23032 1.943258 87.522356-15.712867 13.042037-9.100262 25.753547-19.003819 37.773302-29.434379 47.320749-41.067324 84.654029-90.209558 110.965278-146.06468C953.113533-41.261361 966.94454-103.158083 966.94454-167.324498zM512.027629 222.383248c-75.463716 0-146.471956 28.123524-199.945845 79.19162-53.813626 51.393507-83.45062 119.820969-83.45062 192.677301 0 72.855308 29.635971 141.281747 83.45062 192.675254 53.472865 51.068096 124.482129 79.192643 199.945845 79.192643 75.463716 0 146.472979-28.124548 199.945845-79.192643 53.813626-51.393507 83.449597-119.819946 83.449597-192.675254 0-72.856331-29.635971-141.283794-83.449597-192.677301C658.501632 250.507796 587.492368 222.383248 512.027629 222.383248zM512.027629 711.966703c-126.403898 0-229.242078-97.665367-229.242078-217.71351 0-120.048143 102.837156-217.715557 229.242078-217.715557s229.242078 97.667413 229.242078 217.715557C741.269707 614.300312 638.432551 711.966703 512.027629 711.966703z"  horiz-adv-x="1024" />

    
    <glyph glyph-name="che" unicode="&#58967;" d="M492.676129 801.793032c98.270968 13.840516 179.431226 13.345032 269.278968 0 61.473032-13.01471 123.771871-23.188645 184.220903-39.969032 44.75871-12.420129 77.09729-42.776774 93.084903-89.154065 25.401806-73.265548 52.025806-146.101677 80.037161-218.376258 4.756645-12.089806 20.248774-29.894194 28.936258-28.936258 58.896516 6.639484 86.610581-26.095484 104.613161-74.520774 4.327226-14.831484 1.915871-29.696 0-39.506581-24.542968-6.804645-49.085935-13.543226-71.646968-19.75329 3.171097-25.500903 8.91871-51.398194 9.050839-77.295484 0.990968-118.123355 1.717677-236.279742-0.660645-354.403097-0.396387-21.074581-12.58529-53.875613-21.074581-59.193806-8.026839-13.807484-186.797419-13.146839-200.704-3.567484-46.443355 30.158452-17.870452 80.763871-32.768 121.822968L327.68-81.060129c-11.759484-43.437419-18.762323-116.372645-32.933161-121.822968-30.918194-11.891613-196.641032-12.321032-205.890065 0-12.552258 8.885677-21.074581 44.692645-22.726194 67.683097-3.435355 49.746581-1.453419 99.889548-0.957935 149.867355 0.924903 92.787613 2.312258 185.575226 3.534452 278.990452-17.408 4.558452-42.182194 11.131871-66.956387 17.70529-1.354323 8.885677-3.138065 19.75329 0 31.611871 17.209806 51.133935 42.380387 90.607484 106.892387 82.382452 7.795613-0.990968 22.164645 15.65729 26.425806 26.822194 22.032516 57.740387 45.683613 115.381677 61.44 174.971871 26.392774 100.186839 98.766452 140.486194 191.157677 158.257548C422.449548 792.048516 457.694968 796.408774 492.676129 801.793032L492.676129 801.793032zM215.33729 406.132645c279.155613-57.773419 546.716903-59.127742 821.181935 0-23.056516 71.019355-46.179097 134.110968-63.587097 198.656C957.935484 660.216774 922.062452 687.501419 868.64929 689.879742c-130.180129 5.84671-260.39329 10.504258-390.606452 11.495226-42.875871 0.330323-86.379355-9.810581-128.462452-19.852387-17.341935-4.162065-40.167226-17.374968-46.08-32.239484C272.450065 571.690323 245.958194 492.181677 215.33729 406.132645L215.33729 406.132645zM268.915613 104.217806C269.01471 105.73729 268.849548 102.731355 268.915613 104.217806c22.329806 0 45.815742 0.792774 67.055484 5.747613 15.426065 3.600516 34.981161 16.119742 39.869935 29.365677 3.435355 9.414194-11.363097 33.560774-23.618065 39.20929-51.001806 23.651097-103.390968 45.089032-156.837161 62.629161-26.624 8.753548-56.286968 7.101935-64.875355-30.852129-12.519226-55.494194-0.825806-86.445419 40.695742-95.099871C203.148387 108.578065 236.279742 107.653161 268.915613 104.217806L268.915613 104.217806zM992.256 104.382968c28.837161 3.468387 64.578065 4.756645 98.799484 12.717419 46.773677 10.735484 36.897032 50.209032 35.806968 83.637677-0.924903 28.605935-18.696258 50.109935-44.461419 42.083097-64.412903-19.984516-128.363355-43.536516-188.977548-72.935226-27.846194-13.543226-17.870452-50.869677 13.807484-57.806452C932.599742 106.563097 959.322839 107.091613 992.256 104.382968L992.256 104.382968zM992.256 104.382968"  horiz-adv-x="1256" />

    
    <glyph glyph-name="shouji1" unicode="&#58950;" d="M733.907531 831.181739l-445.956841 0c-40.010249 0-72.385611-32.460296-72.385611-72.383564l0-749.207493c0-39.838334 32.376385-72.470545 72.385611-72.470545l446.043822 0c40.189328 0 72.39175 32.633235 72.39175 72.470545L806.386262 758.798175C806.300304 798.722466 774.098905 831.181739 733.907531 831.181739L733.907531 831.181739zM500.078994-33.372829c-20.044522 0-36.189224 16.23066-36.189224 36.282345 0 19.871583 16.144702 36.19434 36.189224 36.19434 19.87977 0 36.109406-16.322757 36.109406-36.19434C536.189424-17.228127 519.958764-33.372829 500.078994-33.372829L500.078994-33.372829zM764.894266 70.605314 256.966001 70.605314 256.966001 783.702378 764.894266 783.702378 764.894266 70.605314 764.894266 70.605314zM764.894266 70.605314"  horiz-adv-x="1024" />

    
    <glyph glyph-name="zanting03" unicode="&#58960;" d="M73.142857 896l285.257143 0 0-1024-285.257143 0 0 1024ZM650.971429 896l299.885714 0 0-1024-299.885714 0 0 1024Z"  horiz-adv-x="1024" />

    
    <glyph glyph-name="iconfontzan" unicode="&#58917;" d="M801.935903 546.876578c-24.162306 1.569752-104.309694-12.423961-146.501632-16.172331 3.238764 23.676236 11.199063 45.862537 22.340821 86.439698 12.048407 43.880393 31.381731 86.981027 24.90011 137.975445-11.003612 86.569658-110.345154 108.470457-140.192949 25.071002-2.139733-5.977132-42.296315-102.670357-42.296315-102.670357-32.625048-53.119825-33.428344-63.786769-112.563682-120.40937-68.172659-48.777937-82.535785-61.97961-94.995561-72.316026-8.540514-7.085372-17.742083-20.800745-17.742083-31.877011l0-351.381859c0-11.733229 5.63944-22.738887 15.156188-29.597085 52.219315-37.615713 236.396012-68.139913 328.930521-68.139913 48.12916 0 75.233472-1.292436 113.164363 19.828604 20.279882 11.292184 22.852474 28.652574 32.745798 37.862329 46.416146 43.210128 32.937157 101.365642 44.24776 112.820532 52.624545 53.295833 41.783639 117.722168 49.115628 135.069255 20.977777 49.630351 13.036921 48.192605 22.440082 82.467223C932.407444 507.479289 883.697045 541.563572 801.935903 546.876578zM169.214425 516.382053c-32.737612 0-59.273988-26.524097-59.273988-59.265802l0-358.658589c0-32.735565 26.5374-59.275012 59.273988-59.275012 32.731472 0 59.269895 26.539446 59.269895 59.275012l0 358.658589C228.48432 489.857956 201.945897 516.382053 169.214425 516.382053L169.214425 516.382053 169.214425 516.382053zM169.214425 516.382053"  horiz-adv-x="1024" />

    
    <glyph glyph-name="jianzhu" unicode="&#58902;" d="M183.467 676.267h147.2v-108.8l-147.2-0v108.8zM403.2 676.267h147.2v-108.8h-147.2v108.8zM183.467 492.8h147.2l0-108.8h-147.2v108.8zM403.2 492.8h147.2v-108.8h-147.2v108.8zM768 492.8h72.533v-108.8h-72.533v108.8zM768 311.467h72.533v-108.8l-72.533-0v108.8zM183.467 311.467h147.2v-108.8l-147.2-0v108.8zM403.2 311.467h147.2v-108.8h-147.2v108.8zM987.733-19.2v659.2h-292.267v219.733h-659.2v-876.8l-36.267-0v-72.533h1024v72.533h-36.267zM108.8-19.2v806.4h512v-804.267l-512-0zM695.467-19.2v586.667h219.733v-584.533l-219.733-0z"  horiz-adv-x="1024" />

    
    <glyph glyph-name="momentlikepre" unicode="&#58896;" d="M75.353225 411.118688 75.353225 411.118688C102.903433 370.24567 169.371443 293.803206 262.179635 194.744515 270.024124 186.371714 278.027639 177.868254 286.180454 169.243276 337.272969 115.191784 392.083763 58.608104 446.903467 2.949659 466.096708-16.537242 483.915878-34.512217 499.900075-50.546357 509.470788-60.146978 516.287932-66.952236 520.377856-71.022513 573.023676-124.420004 658.35776-124.566105 711.298321-71.087725 714.903927-67.503923 721.725269-60.694787 731.301786-51.088777 747.295676-35.04569 765.125598-17.060779 784.330445 2.436772 839.183258 58.125667 894.027196 114.739494 945.150703 168.818749 953.300582 177.439819 961.301367 185.939517 969.143364 194.308731 1062.366857 293.799857 1129.037414 370.493501 1156.395861 411.232382 1229.911825 520.703488 1244.023876 579.216384 1223.37437 671.75937 1204.452966 756.398892 1150.327467 825.515964 1074.736299 862.068384 1028.160273 884.619626 978.384179 896 926.270362 896 826.826684 896 733.132425 853.046828 667.287074 777.631901L615.877461 718.750758 564.45143 777.617527C498.555699 853.047555 404.853214 896 305.411345 896 257.205077 896 210.805282 886.196149 167.120009 866.797298 88.012117 831.710979 30.806494 762.439909 9.890372 675.935857-12.819661 582.170231 1.403563 520.829037 75.353225 411.118688L75.353225 411.118688ZM1085.54199 665.428395C1071.423795 686.736671 1052.284518 705.18654 1028.644796 718.834941 1003.389815 733.415919 975.957197 740.808557 948.716169 741.647684 926.600567 742.328931 917.187755 738.363993 917.187755 738.363993 898.867473 734.337229 887.965594 716.332633 892.914244 697.864004 897.828625 679.523246 916.762351 667.154599 935.729596 670.166354 935.729596 670.166354 947.728111 672.524776 955.727701 672.704311 963.727326 672.883849 982.192503 666.826636 994.511462 659.714273 1009.776879 650.900787 1020.839356 639.394683 1027.06473 628.785664 1033.290069 618.176642 1033.639083 614.172221 1033.639083 614.172221 1039.990784 596.351563 1059.880073 585.854703 1078.348698 590.803357 1096.689459 595.717751 1107.171567 614.117751 1100.862805 632.451594 1100.862805 632.451594 1098.751659 645.491319 1085.54199 665.428395L1085.54199 665.428395Z"  horiz-adv-x="1263" />

    
    <glyph glyph-name="dakaidesuo" unicode="&#59013;" d="M581.2 117 581.2 117 581.2 117ZM776.5 408.6l-27.9 0L630.1 408.6l-75.5 0L420.5 408.6c-4.2 8.8-6.8 18.1-6.8 27.9L413.7 631.9c0 46.3 50 83.7 111.6 83.7s121-36.8 121-83.1L646.3 486 758 486 758 632.5C758 740.5 648.6 827.3 525.3 827.3S302 739.8 302 631.9l0-223.3-27.9 0c-46.3 0-83.7-37.5-83.7-83.7l0-307c0-46.2 37.5-83.7 83.7-83.7l502.4 0c46.3 0 83.7 37.5 83.7 83.7l0 307C860.3 371.1 822.8 408.6 776.5 408.6zM581.2 117l0-43.4c0-30.8-25-55.8-55.8-55.8-30.8 0-55.8 25-55.8 55.8L469.6 117c-33.2 19.4-55.8 54.9-55.8 96.2 0 61.7 50 111.6 111.6 111.6S637 274.9 637 213.2C637 172 614.4 136.4 581.2 117z"  horiz-adv-x="1024" />

    
    <glyph glyph-name="liwu" unicode="&#58933;" d="M646.251789 596.560842c-2.263579 0.754526-4.608 0.862316-6.386526 0.862316-21.989053 0-45.002105-39.262316-60.092632-77.365895 56.508632 3.745684 82.324211 32.660211 84.641684 51.954526C666.192842 587.075368 655.225263 593.542737 646.251789 596.560842zM512 896C229.241263 896 0 666.758737 0 384s229.241263-512 512-512 512 229.241263 512 512S794.758737 896 512 896zM485.052632 114.526316l-134.736842 0c-29.776842 0-53.894737 24.117895-53.894737 53.894737l0 134.736842c0 29.749895 24.117895 53.894737 53.894737 53.894737l134.736842 0L485.052632 114.526316zM727.578947 168.421053c0-29.776842-24.117895-53.894737-53.894737-53.894737l-134.736842 0 0 242.526316 134.736842 0c29.776842 0 53.894737-24.144842 53.894737-53.894737L727.578947 168.421053zM754.526316 424.421053c0-7.437474-6.036211-13.473684-13.473684-13.473684l-458.105263 0c-7.437474 0-13.473684 6.036211-13.473684 13.473684l0 53.894737c0 7.437474 6.036211 13.473684 13.473684 13.473684l81.461895 0c-27.136 19.536842-43.088842 45.109895-46.241684 71.275789-4.742737 39.289263 16.599579 72.865684 53.436632 85.180632 6.359579 2.128842 13.285053 3.449263 20.210526 3.449263 63.919158 0 99.732211-93.830737 114.310737-134.844632l19.159579 0c13.312 40.421053 50.634105 136.003368 114.553263 136.003368 6.898526 0 13.581474-0.997053 20.210526-3.179789 36.864-12.234105 58.314105-45.891368 53.436632-85.180632-3.287579-26.462316-19.105684-53.140211-47.966316-72.704l2.694737 0L741.052632 491.789474c7.437474 0 13.473684-6.036211 13.473684-13.473684L754.526316 424.421053zM391.814737 596.264421c-2.290526 0-4.338526-0.296421-6.386526-1.158737-9.458526-2.317474-19.563789-9.835789-18.162526-24.252632 1.913263-19.375158 28.133053-48.505263 84.884211-52.277895C436.304842 556.436211 413.561263 596.264421 391.814737 596.264421zM365.487158 490.873263"  horiz-adv-x="1024" />

    
    <glyph glyph-name="tmzuijinliaotian" unicode="&#58973;" d="M869.577978 828.461791 152.466484 828.461791c-47.764863 0-86.654592-38.889729-86.654592-86.654592l0-457.564203c0-47.76998 38.889729-86.653569 86.654592-86.653569l110.571305 0 2.305509-231.359298 237.20954 231.359298 367.025141 0c47.76384 0 86.654592 38.883589 86.654592 86.653569L956.23257 741.807199C956.23257 789.572062 917.341818 828.461791 869.577978 828.461791zM775.330454 417.812083c0-16.389272-13.286608-29.67588-29.67588-29.67588l-316.201615 0-5.116531 0-17.396205 0c-10.737552 0-19.442818 8.705266-19.442818 19.442818L387.497405 689.159118c0 10.737552 8.705266 19.442818 19.442818 19.442818l22.512736 0c10.737552 0 19.442818-8.705266 19.442818-19.442818l0-236.383732 296.758798 0c16.389272 0 29.67588-13.286608 29.67588-29.67588L775.330454 417.812083z"  horiz-adv-x="1024" />

    
    <glyph glyph-name="xiajiantou" unicode="&#59076;" d="M511.020696 248.119263 114.324792 616.434793 63.582107 572.956559 511.020696 157.533129 958.461331 572.956559 907.71967 616.434793Z"  horiz-adv-x="1024" />

    
    <glyph glyph-name="renzheng" unicode="&#59034;" d="M706.985 378.866c43.495 47.067 68.794 112.229 68.794 181.021 0 155.683-126.741 282.409-282.409 282.409-155.683 0-282.409-126.741-282.409-282.409 0-105.006 57.921-195.553 141.191-242.559-152.091-50.733-267.892-208.167-289.639-374.706l574.737 0c-43.495 47.067-82.358 132.157-82.358 200.918 0.001 105.006 61.571 195.553 152.091 235.326zM801.136 331.83c-101.344 0-181.021-83.279-181.021-184.596s83.281-184.596 181.021-184.596c101.362 0 181.021 83.279 181.021 184.596 0 101.362-79.661 184.596-181.021 184.596zM801.136 49.398l-18.071-21.733-94.103 101.362 32.566 32.566 57.921-61.571 112.229 141.207 36.198-28.949-126.741-162.934z"  horiz-adv-x="1024" />

    
    <glyph glyph-name="qichefuwu" unicode="&#59009;" d="M337.560935 289.289718m-45.939852 0a44.908 44.908 0 1 0 91.879704 0 44.908 44.908 0 1 0-91.879704 0ZM357.534561 438.262793l311.593686 0c26.476691 0 47.937726 21.462058 47.937726 47.937726l-15.978901 57.925051c-9.487089 30.959377-13.472607 55.927177-39.948276 55.927177L365.524012 600.052747c-26.476691 0-32.291293-15.978901-39.949299-47.937726l-15.978901-65.914501C309.596835 459.724851 331.058893 438.262793 357.534561 438.262793zM570.257518 321.747756 443.422689 321.747756c-8.8242 0-15.978901-7.153678-15.978901-15.978901l0-32.958274c0-8.8242 7.153678-15.977878 15.978901-15.977878l126.834829 0c8.8242 0 15.978901 7.152655 15.978901 15.977878l0 32.958274C586.23642 314.593055 579.082741 321.747756 570.257518 321.747756zM512 896C229.230737 896 0 666.769263 0 384 0 101.229714 229.230737-128 512-128c282.770286 0 512 229.229714 512 512C1024 666.769263 794.770286 896 512 896zM829.585263 441.925051c-13.317115-2.829554-28.567656-4.595213-28.567656-4.595213s10.127473-20.486138 12.255265-40.345191c1.996851-18.643756 8.096863-109.285658 8.096863-109.285658s-0.153447-7.533203-0.567752-8.75566c0 0 0.586166-2.59427 0.586166-3.343089 0-0.748819 0-86.012931 0-86.012931l-0.124803 0 0-47.272791c0-21.328048-17.289335-38.61636-38.61636-38.61636l-31.958825 0c-21.328048 0-38.61636 17.288312-38.61636 38.61636l0 47.272791L308.264919 189.587309l0-47.272791c0-21.328048-17.289335-38.61636-38.61636-38.61636l-31.958825 0c-21.327025 0-38.61636 17.288312-38.61636 38.61636l0.291548 47.272791-0.290525 0 0.451133 26.170821 0.088999 14.44239c0 1.445467 0.083884 2.871497 0.234262 4.276044l0.724268 41.997299c0 0 0.053195 1.569247 0.52581 2.469467-0.026597 0.777463-0.775417 6.519433-0.52581 7.768488 0.249606 1.248032 8.488663 100.952488 8.488663 105.944615s5.246849 40.86384 11.778557 44.567017c0 0-26.759033 3.703177-30.421291 5.03407-3.661235 1.330893-10.65226 6.990002-10.65226 12.650134 0 5.658086 0.499213 21.720871 0.665958 23.634861s4.994174 11.318218 13.98205 11.984176c8.988899 0.665958 66.330853 0.166745 66.330853 0.166745s5.81767-0.009207 7.153678-2.438777c0 0 29.049479 95.484675 35.707013 110.13166 6.657534 14.646985 32.62376 44.606913 59.255944 44.606913s296.946701 0 296.946701 0 48.603684-10.65226 60.58786-49.268619 33.552623-105.2316 33.552623-105.2316 2.045954 1.877163 5.063736 2.031632c3.017782 0.155493 68.410565 0 68.410565 0s13.648559-2.163596 13.648559-12.981578C841.071249 466.726106 842.902378 444.754605 829.585263 441.925051zM681.113447 289.289718m-45.939852 0a44.908 44.908 0 1 0 91.879704 0 44.908 44.908 0 1 0-91.879704 0Z"  horiz-adv-x="1024" />

    
    <glyph glyph-name="101" unicode="&#58883;" d="M987.99268 866.658719C984.726588 868.39885 981.166013 869.228758 977.284183 869.228758c-14.001359 0-26.744471-11.672261-26.557072-11.672261-8.513255-4.765281-853.547503-477.839895-883.45098-495.321516-16.839111-9.825046-26.503529-26.637386-25.111425-43.878065 1.044078-14.161987 9.47702-25.352366 22.380758-29.930248 25.352366-8.941595 281.312209-98.73234 281.312209-98.73234l4.711739-1.606275 16.16983 53.970824-246.509595 85.748288L876.97234 765.811451c-80.286954-101.222065-407.618928-513.49919-422.717908-532.48-19.489464-24.227974-28.564915-48.616575-28.484601-76.512209l0.267712-165.232105-0.053542 0c0 0 0.053542-57.665255 0.053542-57.852654l0-2.114928 0 0C427.215477-82.944 438.379085-94.535948 451.764706-94.535948c13.385621 0 24.736627 11.591948 25.941333 26.155503l0 0c0 0 0.535425 205.951163 0 221.103686-0.481882 13.465935 4.925908 28.591686 10.360471 35.632523C493.527843 195.209203 866.718954 665.499608 939.48319 757.324967c-20.69417-114.714771-122.772915-678.891922-124.298876-687.164235-0.776366-4.363712-2.516497-4.363712-3.266092-4.363712-0.562196 0-1.258248 0.133856-1.981072 0.401569-7.228235 2.570039-260.537725 87.916758-271.326536 91.530876l-4.551111 1.552732-16.651712-54.425935 4.95268-1.713359c2.489725-0.829908 250.953621-85.266405 275.636706-93.217464 4.925908-1.579503 9.932131-2.409412 14.991895-2.409412 26.182275 0 48.027608 20.881569 53.194458 50.65119 2.007843 11.779346 26.209046 145.180444 54.158222 299.677281 38.550588 212.536889 82.187712 453.451294 83.285333 461.000784l0.588967 3.587346C1006.304209 834.77417 1009.757699 855.280941 987.99268 866.658719L987.99268 866.658719 987.99268 866.658719zM987.99268 866.658719"  horiz-adv-x="1065" />

    
    <glyph glyph-name="xingbienan2" unicode="&#58956;" d="M512.002047 803.146219c-231.491305 0-419.148265-187.656961-419.148265-419.148265 0-231.486188 187.656961-419.143149 419.148265-419.143149 231.486188 0 419.143149 187.656961 419.143149 419.143149C931.145196 615.489258 743.488235 803.146219 512.002047 803.146219zM782.858918 448.430428c0-22.796192-18.48705-41.284265-41.283242-41.284265-22.801309 0-41.288358 18.48398-41.288358 41.284265l0 65.468061-80.482009-80.486102c53.096289-80.149435 44.341904-189.196013-26.273387-259.81949-80.609922-80.601736-211.31273-80.601736-291.930839 0-80.612992 80.621179-80.612992 211.32501 0 291.938002 70.616314 70.612221 179.666986 79.366605 259.81642 26.266224l80.485079 80.489172-65.471131 0c-22.801309 0-41.280172 18.479887-41.280172 41.280172 0 22.804379 18.478863 41.292452 41.280172 41.292452l165.144224 0c22.796192 0 41.283242-18.488073 41.283242-41.292452L782.858918 448.430428zM359.989911 407.137976c-48.371684-48.366567-48.371684-126.785591 0-175.149089 48.367591-48.366567 126.789685-48.366567 175.161369 0 48.363498 48.363498 48.363498 126.782521 0 175.149089C486.779595 455.505567 408.357502 455.505567 359.989911 407.137976z"  horiz-adv-x="1024" />

    
    </font>
</defs>
</svg>
